<?xml version="1.0" encoding="UTF-8" standalone="no"?>
<!-- Creator: CorelDRAW -->

<svg
   xmlns:osb="http://www.openswatchbook.org/uri/2009/osb"
   xmlns:dc="http://purl.org/dc/elements/1.1/"
   xmlns:cc="http://creativecommons.org/ns#"
   xmlns:rdf="http://www.w3.org/1999/02/22-rdf-syntax-ns#"
   xmlns:svg="http://www.w3.org/2000/svg"
   xmlns="http://www.w3.org/2000/svg"
   xmlns:xlink="http://www.w3.org/1999/xlink"
   xmlns:sodipodi="http://sodipodi.sourceforge.net/DTD/sodipodi-0.dtd"
   xmlns:inkscape="http://www.inkscape.org/namespaces/inkscape"
   xml:space="preserve"
   width="610.30481"
   height="484.23755"
   style="fill-rule:evenodd"
   viewBox="0 0 172.24156 136.66258"
   id="svg3066"
   version="1.1"
   inkscape:version="0.48.2 r9819"
   sodipodi:docname="usa-canada-new.svg"><metadata
   id="metadata3145"><rdf:RDF><cc:Work
       rdf:about=""><dc:format>image/svg+xml</dc:format><dc:type
         rdf:resource="http://purl.org/dc/dcmitype/StillImage" /><dc:title></dc:title></cc:Work></rdf:RDF></metadata><sodipodi:namedview
   pagecolor="#ffffff"
   bordercolor="#666666"
   borderopacity="1"
   objecttolerance="10"
   gridtolerance="10"
   guidetolerance="10"
   inkscape:pageopacity="0"
   inkscape:pageshadow="2"
   inkscape:window-width="1366"
   inkscape:window-height="716"
   id="namedview3143"
   showgrid="false"
   inkscape:zoom="1.5068138"
   inkscape:cx="199.20486"
   inkscape:cy="388.20617"
   inkscape:window-x="-8"
   inkscape:window-y="-8"
   inkscape:window-maximized="1"
   inkscape:current-layer="svg3066"
   fit-margin-top="0"
   fit-margin-left="0"
   fit-margin-right="0"
   fit-margin-bottom="0"
   showguides="true"
   inkscape:guide-bbox="true"><sodipodi:guide
     orientation="1,0"
     position="536.22615,240.38003"
     id="guide4456" /><sodipodi:guide
     orientation="1,0"
     position="571.61656,293.40917"
     id="guide4483" /><sodipodi:guide
     orientation="0,1"
     position="546.28354,247.21397"
     id="guide4520" /><sodipodi:guide
     orientation="0,1"
     position="568.1049,219.01406"
     id="guide4522" /><sodipodi:guide
     orientation="0,1"
     position="554.00495,191.59748"
     id="guide4524" /><sodipodi:guide
     orientation="1,0"
     position="529.67984,114.3442"
     id="guide3279" /><sodipodi:guide
     orientation="1,0"
     position="592.61812,148.13044"
     id="guide3281" /></sodipodi:namedview>
 <defs
   id="defs3068"><linearGradient
   id="linearGradient4789"
   osb:paint="solid"><stop
     style="stop-color:#c2c1c1;stop-opacity:1;"
     offset="0"
     id="stop4791" /></linearGradient>




  <inkscape:perspective
   id="perspective64"
   inkscape:persp3d-origin="479.5 : 197.66667 : 1"
   inkscape:vp_z="959 : 296.5 : 1"
   inkscape:vp_y="0 : 1000 : 0"
   inkscape:vp_x="0 : 296.5 : 1"
   sodipodi:type="inkscape:persp3d" /><linearGradient
   inkscape:collect="always"
   xlink:href="#linearGradient4789"
   id="linearGradient4811"
   x1="150.68604"
   y1="148.77452"
   x2="154.11234"
   y2="148.77452"
   gradientUnits="userSpaceOnUse" /><linearGradient
   inkscape:collect="always"
   xlink:href="#linearGradient4789"
   id="linearGradient4823"
   x1="133.21503"
   y1="142.87273"
   x2="151.61642"
   y2="142.87273"
   gradientUnits="userSpaceOnUse"
   gradientTransform="matrix(3.543307,0,0,3.543307,4.9321338e-6,0)" />

  <linearGradient
   inkscape:collect="always"
   xlink:href="#linearGradient4789"
   id="linearGradient5014"
   gradientUnits="userSpaceOnUse"
   x1="133.21503"
   y1="142.87273"
   x2="151.61642"
   y2="142.87273" /><inkscape:perspective
   id="perspective64-7"
   inkscape:persp3d-origin="479.5 : 197.66667 : 1"
   inkscape:vp_z="959 : 296.5 : 1"
   inkscape:vp_y="0 : 1000 : 0"
   inkscape:vp_x="0 : 296.5 : 1"
   sodipodi:type="inkscape:persp3d" />


 </defs>
 <path
   style="fill:#c9c9c9;fill-opacity:0.99918739;stroke:#7c7c7c;stroke-width:0.28222224;stroke-miterlimit:4;stroke-opacity:1;stroke-dasharray:none"
   d="m 40.603654,125.70005 -0.62618,0.3175 -0.12348,0.59972 0.9966,0.35278 0.33514,-0.0705 0.22049,-0.62618 -0.12348,-0.52917 -0.67909,-0.0441 z m -1.71098,0.93486 -0.35277,0.0706 -0.28223,0.58208 0.38806,-0.0265 0.30868,-0.5027 -0.0617,-0.12348 z m 6.92327,0.52035 -0.89959,0.50271 -0.0882,0.29104 0.635,0.83785 0.38806,-0.0706 0.17639,-0.0882 0.23812,0.19403 0.59091,-0.0617 0.14111,-0.23813 -0.47625,-0.25576 -0.33514,-0.57326 -0.37042,-0.53799 z m 2.4959,1.71097 -0.19403,0.3175 0.89077,0.21167 0.69673,0.0176 0.4057,-0.25577 0.0353,-0.20284 -0.97896,-0.0529 -0.10583,0.0794 -0.74966,-0.11466 z m 2.13431,0.37924 -0.33514,0.47625 0.82903,1.01424 0.39687,0.20284 0.76729,-0.18521 0.54681,-0.3175 -0.0176,-0.29986 -0.71438,-0.40569 -0.70555,-0.14111 -0.76729,-0.34396 z m -1.44639,0.51153 0.009,0.20284 0.34396,0.59973 0.48507,-0.20285 0.0353,-0.26458 -0.27341,-0.3175 -0.59972,-0.0176 z m 4.13632,2.06375 -0.24695,0.22048 0.0705,0.32632 0.27341,0.27341 -0.0706,0.15875 -0.30869,0.5027 -0.35277,0.16757 0.0441,0.4057 0.35277,0.26458 0.29987,0.88195 -0.0794,0.38805 0.0882,0.71438 0.5909,0.37923 0.282221,0.0176 0.335139,-0.48507 0.361597,-0.52917 0.47625,-0.30868 0.238125,0.097 0.652639,-0.26459 0.590903,-0.5468 0.0441,-0.21167 -0.661458,-0.37041 -0.352778,-0.6791 -0.273403,-0.37042 -0.555625,-0.29986 -1.24354,-0.50271 -0.55563,-0.2293 z"
   id="HI"
   inkscape:label="#HI"
   inkscape:connector-curvature="0" /><path
   id="AK"
   class="fil0 str0"
   d="m 19.775484,113.63079 1.4221,9.1392 0.1884,0.0746 0.3295,-0.0381 0.1355,-0.1473 0.2751,-0.0467 0.0669,0.3085 0.8552,0.6011 0.0958,0.2681 0.328,-0.2688 0.066,-0.029 -0.018,-0.3345 0.1272,-0.1992 0.1176,-0.0377 0.1815,-0.1907 0.3626,0.1695 0.1184,0.2997 0.2257,0.0861 0.1618,0.2391 0.443,0.1203 0.4632,0.5788 0.3585,0.3656 0.2877,0.2532 0.2182,0.3716 0.5634,0.0999 0.5861,0.1316 0.1777,0.4496 0.104,0.3199 -0.0453,0.3808 -0.1505,0.2742 -0.1858,-0.0573 -0.2071,-0.3025 -0.3172,-0.1061 -0.2085,-0.089 -0.0722,0.1011 0.2017,0.2678 0.0807,0.3949 -0.1121,0.0723 -0.2395,-0.1726 -0.2456,-0.1004 0.0792,0.1642 0.1678,0.1669 -0.0721,0.1011 c 0,0 -0.0915,-0.02 -0.1541,-0.0804 -0.0627,-0.0605 -0.2815,-0.3254 -0.2815,-0.3254 l -0.1418,-0.2247 c 0,0 -0.0123,0.1442 -0.0866,0.1213 -0.0743,-0.023 -0.1624,-0.1324 -0.1624,-0.1324 l 0.156,-0.2396 -0.1796,-0.1294 -0.0855,-0.5363 -0.086,0.0146 -0.028,0.3778 -0.1121,0.0723 -0.1666,-0.3803 -0.1322,-0.3862 -0.0943,-0.0374 0.1309,0.5996 0.0193,0.1211 -0.1768,-0.1121 -0.4804,-0.5759 -0.2318,-0.014 -0.1322,-0.3862 -0.2216,-0.2822 -0.1913,-0.0919 -0.0386,-0.2422 0.2014,-0.1763 -0.0571,-0.0258 -0.264,0.1158 -0.4026,-0.1983 -0.3247,-0.2647 -0.56,-0.1893 -0.4741,-0.2039 0.0824,-0.3693 -0.0276,-0.1729 -0.1616,0.205 -0.2902,0.1736 -0.4148,-0.0541 -0.6432,-0.1574 -0.5847,0.0991 -0.0605,0.0636 -0.754,-0.2985 -0.2291,0.003 -0.3916,-0.5731 -0.3728,0.0987 -0.3535,0.2198 0.1288,0.4757 0.0707,-0.3319 0.1087,0.0172 -0.0803,0.4933 0.2971,-0.3524 0.0963,0.1613 -0.3382,0.537 -0.1431,-0.0112 -0.0847,-0.1989 -0.1513,-0.0632 -0.1183,0.1444 -0.3227,-0.1407 -0.2909,0.2803 -0.1533,0.2569 -0.3252,0.2862 -0.5014,0.0672 -0.0875,-0.2161 0.3845,-0.1363 -0.0221,-0.1384 -0.2518,-0.0283 0.0619,-0.277 0.1745,-0.456 -0.0304,-0.1903 0.004,-0.0894 0.4256,-0.3208 0.1253,0.1208 0.2923,-0.0495 -0.1817,-0.2534 -0.401,0.0324 -0.4862,0.3845 -0.2,0.4069 -0.145,0.3089 -0.0818,0.2626 -0.4223,0.2314 -0.2826,0.3322 -0.007,0.1788 0.2573,0.063 0.1219,0.2103 -0.2372,0.3955 -0.6161,0.5664 -0.7537,0.5897 -0.2042,0.1589 -0.5482,0.2173 -0.5289,0.3384 0.2112,0.1063 -0.1299,0.1819 -0.0322,0.1299 -0.309,-0.0543 -0.3411,0.0757 -0.0474,0.2567 -0.1031,0.0175 -0.007,-0.2653 -0.3563,0.2025 -0.293,0.1563 -0.3831,-0.0772 -0.2765,0.2601 -0.3438998,0.0583 -0.2015,0.1763 -0.1581,0.1156 -0.2291,0.003 -0.2945,-0.0744 -0.2297,0.11 -0.0866,0.1213 -0.1913,-0.092 -0.0331,-0.2075 0.3047,-0.1938 0.6817,-0.0445 0.4367,-0.2517 0.1876998,-0.2628 0.2985,-0.1217 0.1753,-0.1185 0.2951,-0.0323 0.194,0.1092 0.0977,-0.052 0.1939,-0.3349 0.3102,-0.1592 0.35,-0.1304 0.1321,-0.058 0.077,0.0403 0.086,-0.0146 0.0741,-0.4212 0.4051,-0.2285 0.1429,-0.4329 0.1636,-0.5251 0.1471,-0.1849 -0.01,-0.2826 -0.1499,0.1676 -0.35,0.1304 -0.1102,-0.2478 -0.1431,-0.0113 -0.0866,0.1213 0.0324,0.3143 -0.1575,0.009 -0.254,-0.5965 -0.1155,0.1617 -0.1287,-0.0315 -0.0675,-0.2017 -0.4271,0.0902 -0.2043,0.159 -0.2806,0.012 0.1299,-0.1819 0.008,-0.2855 -0.1019,-0.196 0.1382,-0.13 0.1348,-0.0406 -0.0991,-0.1786 -0.0745,-0.4671 -0.1197,-0.0863 -0.0612,0.1703 -0.6534,0.1108 -0.1768998,-0.1121 -0.135,-0.4036 -0.2842,-0.3426 -0.0165,-0.1038 0.2097,-0.1244 -0.0186,-0.2278 0.101,-0.1415 -0.0942,-0.0373 -0.1293,0.0752 -0.1673,-0.2736 0.0177,-0.5537 0.4263,-0.4277 0.2475998,-0.2196 0.1429,-0.4328 0.2702,-0.188 0.2945,0.0745 0.0757,0.2536 0.2525,-0.0783 0.3025,-0.3178 0.183,0.0401 0.1142,0.0517 0.172,-0.0292 0.2187,-0.1792 0.0114,-0.4816 c 0,0 -0.0152,-0.3172 0.0453,-0.3808 0.0605,-0.0635 0.0866,-0.1213 0.0866,-0.1213 l -0.1534,-0.1871 -0.2614,0.1331 -0.3301,0.1448 -0.2146,-0.0169 -0.4087,-0.1261 -0.5359,0.073 -0.4416998,-0.3337 -0.0146,-0.4239 0.0274,-0.2711 -0.2539,-0.1524 -0.2698,-0.3629 0.0378,-0.0952 0.7139998,-0.1744 0.2235,-0.0379 0.1197,0.0864 0.0688,-0.0117 -0.0448,-0.1701 0.4017,-0.1392 0.2807,-0.012 0.1741,0.0949 -0.119,0.2511 -0.0267,0.1644 0.3199,0.1234 0.5634,0.0999 0.1726,-0.1358 -0.3152,-0.4263 -0.1583,-0.3284 0.0893,-0.104 -0.3942,-0.1464 -0.0709,-0.1123 0.024,-0.1817 -0.1522,-0.4006 -0.3895,-0.4492 -0.3296,-0.406 0.2764,-0.26 0.3439,-0.0583 0.2002,0.0371 0.4444,-0.0931 0.3348,-0.4476 0.0679,-0.3491 0.3542,-0.3265 0.1885,0.0746 0.2813,-0.1188 0.3596,-0.2919 0.1176,-0.0377 0.117,0.069 0.4787,-0.0989 0.24,-0.3783 0.1203,-0.0204 0.4197,0.1954 0.2422,0.1899 -0.0322,0.1298 0.088,0.1094 0.1444,-0.2021 0.4182,-0.0354 0.0979,0.392 0.2311,0.1207 0.7677,-0.0591 0.7424,0.3361 0.1382,-0.13 0.5944,0.1835 0.2125,-0.1071 0.1926,-0.1215 0.549,0.1201 0.5139,0.2327 z m -11.7497998,5.172 0.3145,0.533 -6e-4,0.1067 -0.3151,0.0179 -0.2581,-0.4004 -0.2139,-0.1236 -0.258,0.0437 -0.0613,-0.2738 0.1478,-0.2916 0.1617,0.2391 0.1796,0.1294 0.3034,0.0196 z m 0.2958,3.6274 0.4093,0.0194 0.4121,0.0368 0.1025,0.0892 -0.1085,0.427 -0.3295,0.0381 -0.4218,-0.3193 -0.0641,-0.2912 z m -2.441,-1.1318 0.1645,0.2564 0.1479,0.1526 -0.1066,0.1069 -0.2759,-0.2908 -0.0331,-0.2076 0.1032,-0.0175 z m -0.2149,8.0666 0.3225,-0.3034 0.3445,-0.165 0.2807,-0.0121 0.0792,0.1642 0.2146,0.0169 0.1733,-0.2425 -0.062,-0.1672 0.2813,-0.1187 0.3537,0.2243 -0.0901,0.2107 -0.445,0.1998 -0.3006,-0.002 -0.4148,-0.054 -0.4395,0.2344 -0.1664,0.0637 -0.1314,-0.0487 z m 5.1331998,-1.3677 0.205,0.1784 0.196,-0.2109 -0.1768,-0.1122 -0.2242,0.1447 z m 0.3619,0.2762 0.0818,-0.2626 0.229,-0.003 -0.0529,0.2221 -0.2579,0.0438 z m 2.4775,-0.6333 0.1851,0.1641 0.0839,-0.1386 -0.1191,-0.193 -0.1499,0.1675 z m 0.7162,-1.4893 0.2197,0.6023 0.3233,0.034 0.4834,-0.4018 0.4202,-0.3554 -0.2133,-0.2304 0.0102,-0.2682 -0.2015,0.1763 -0.3234,-0.034 0.1527,-0.1503 0.2201,0.0516 0.3824,-0.2603 0.0268,-0.1644 -0.2718,-0.0428 0.0529,-0.2221 -0.2592,0.2571 -0.438,0.4651 -0.4662,0.3989 -0.1183,0.1444 z m 4.1661,-2.8915 0.2331,-0.1994 -0.1335,-0.1728 -0.1726,0.1358 0.073,0.2364 z"
   inkscape:connector-curvature="0"
   style="fill:#c9c9c9;fill-opacity:0.99918739;stroke:#7c7c7c;stroke-width:0.28222224;stroke-miterlimit:4;stroke-opacity:1;stroke-dasharray:none"
   inkscape:label="#AK" /><path
   id="FL"
   class="fil0 str0"
   d="m 121.53187,110.28579 0.42089,1.1387 0.674,1.5099 0.9268,1.4388 0.6441,0.9665 0.8177,0.8293 0.6744,0.5548 0.2814,0.4469 -0.1697,0.2138 -0.1182,0.2111 0.5245,1.152 0.4874,0.4362 0.4559,0.8224 0.6143,0.8911 c 1.1739,3.8899 0.1239,4.6202 -1.5171,7.2839 -0.826,1.3408 -1.4254,-1.6331 -1.9104,-1.6481 l -0.1182,0.2111 -0.5252,-0.665 -0.1321,-0.557 -0.4452,-0.6179 -0.2927,-0.1643 c -0.2687,0.3863 -0.2865,-1.0748 -0.8775,-2.053 -0.4422,-0.7321 -1.4501,-0.4691 -1.7137,-0.8147 -0.6737,-0.8828 -0.1797,-1.5588 -0.2765,-2.0461 -0.0364,-0.1835 -1.0155,0.4445 -1.1009,0.0319 -0.0436,-0.2112 0.4631,-1.9702 0.4305,-2.5995 l -0.5198,-0.5628 -0.2312,-0.475 -0.8349,-0.162 -0.3144,-0.0864 -0.2787,-0.3957 -0.5542,-0.2278 -0.2081,-0.5275 -0.4459,-0.1309 -0.4168,-0.568 -0.6816,-0.1956 -0.4756,-0.2062 -0.4121,0.0212 -0.6374,0.161 -0.01,0.3081 0.1367,0.1467 -0.068,0.183 -0.4908,-4e-4 -0.5633,0.5929 -0.5508,0.3359 -0.6183,0.0319 -0.5045,0.231 -0.0741,-0.4319 -0.2734,-0.2935 -0.4729,-0.1551 -0.2695,-0.2168 -1.3198,-0.5471 -1.2252,-0.2189 -0.6901,0.1381 -0.9492,0.1257 -0.9358,0.3814 -0.5494,0.1255 -0.1038,-1.2709 -0.428,-0.2855 -0.2979,-0.2666 0.0264,-0.4884 1.6122,-0.288 4.0461,-0.6698 1.0766,-0.1579 0.8685,-3e-4 0.4438,0.5923 0.2438,0.2181 1.2945,0.015 1.7187,-0.191 3.4173,-0.381 0.8621,-0.1514 0.8156,-0.01 0.0918,0.4566 0.3624,0.1095 -4e-4,-0.734 -0.2777,-0.6473 0.1967,-0.2385 0.8888,0.0264 0.8269,0.009 z"
   nodetypes="cccccccccccccccccccccccccccccccccccccccccccccccccccccccccccccccccccccccccccccccccccccccccccccccccccccccccccccccccccccccccccccccccccccccccccccc"
   inkscape:connector-curvature="0"
   style="fill:#c9c9c9;fill-opacity:0.99918739;stroke:#7c7c7c;stroke-width:0.28222224;stroke-miterlimit:4;stroke-opacity:1;stroke-dasharray:none"
   inkscape:label="#FL" /><path
   id="MI"
   class="fil0 str0"
   d="m 88.088887,59.827794 -0.1173,0.0998 0.6785,0.7798 1.3517,0.1182 1.4247,0.2783 0.4935,0.1397 2.0894,0.3304 0.3714,0.3438 0.6137,0.1884 0.4203,1.6148 0.2433,0.1518 0.2113,0.1533 0.4765,-1.1327 0.1295,-0.6504 0.2974,-0.703 0.1314,-0.0361 0.2112,0.2475 0.1065,-0.005 0.751,-0.4176 0.2641,0.24 0.0812,0.0208 0.2138,-0.1886 0.1648,-0.4935 0.402897,-0.1482 1.181476,-0.161 0.3077,-0.4211 0.8768,-0.0719 c 5.6633,0.4202 0.8134,-1.6894 0.1081,-1.6155 -0.504,-1.3354 -3.639173,1.0479 -4.188973,1.4015 -1.9698,0.0949 -2.7774,-1.4938 -4.7216,-0.2414 0.3174,-3.4256 0.6567,-2.2255 -4.5743,0.1781 z m 13.473673,2.9926 -0.035,0.3337 0.0675,0.2544 0.1014,0.8671 -0.5833,0.36 -0.1132,-0.0193 -0.0369,-0.667 0.1972,-0.3911 0.0905,-0.3908 -0.1455,-0.1218 -0.323,0.1444 -0.1282,0.675 -0.4586,0.2005 -0.286486,0.321 -0.0182,0.1544 0.118886,0.1231 -0.0891,0.4155 -0.3792,0.0926 0.01,0.1779 0.1545,0.379 -0.1381,0.9778 -0.23599,0.6555 0.14749,0.736 0.095,0.1738 -0.117,0.3921 -0.0464,0.1261 -0.0346,0.4377 0.65949,0.9195 0.55169,0.999 0.2927,0.7539 -0.0975,0.7478 -0.1128,0.9518 -0.36989,0.8403 -0.0291,0.4374 -0.52669,0.5159 0.74909,-0.0659 3.62719,-0.5314 1.2317,-0.2178 0.3447,-0.1038 0.84641,-0.189 c 2.7247,-0.5028 2.34449,-2.4974 2.6997,-4.2207 0.5691,-2.7616 -0.7671,-6.6125 -2.141,-2.8994 -2.4721,0.0791 -0.52411,-1.1954 -0.1204,-1.2469 l 0.0891,-0.4156 0.39579,-0.2766 -0.141,-1.5837 -0.2966,-0.3424 -0.2254,-0.118 c 0.0268,-0.756 -1.35339,-2.4396 -5.2407,-0.362 z"
   inkscape:connector-curvature="0"
   style="fill:#c9c9c9;fill-opacity:0.99918739;stroke:#7c7c7c;stroke-width:0.28222224;stroke-miterlimit:4;stroke-opacity:1;stroke-dasharray:none"
   inkscape:label="#MI" /><path
   id="ME"
   class="fil0 str0"
   d="m 145.20486,50.658794 0.2879,0.2936 c -0.0468,0.6687 0.13641,1.9926 -0.2914,2.7007 -0.5163,0.8546 -1.3258,1.0755 -2.418,1.9641 -0.9171,0.746 -2.1311,1.1684 -2.6439,1.8569 l 0.1597,0.467 -0.1952,0.2009 0.009,0.6417 -0.1128,0.927 -0.3545,-0.1508 -0.0904,-0.4471 -0.5536,-0.1365 -0.0653,-0.4008 -1.192,-3.3843 -0.7662,-2.1124 0.1988,-0.0282 0.2158,0.0487 -0.0187,-0.3796 0.1515,-0.6698 0.3298,-0.7076 0.1753,-0.6041 -0.2902,-0.3411 -0.0432,-0.8777 0.1066,-0.1485 0.0938,-0.4094 -0.0332,-0.2123 -0.0578,-0.7104 0.215,-0.7252 0.3449,-1.3269 0.2652,-0.6328 0.1818,-0.01 0.1829,0.0139 0.008,0.166 0.1982,0.3223 0.3911,0.0739 0.1077,-0.1247 -0.007,-0.1424 0.5472,-0.4577 0.2372,-0.2745 0.2057,0.0127 0.8584,0.3102 0.2798,0.1276 1.4886,4.3196 0.841,-0.0455 0.1276,0.2785 0.0578,0.7104 0.4254,0.3099 0.1136,-0.006 0.0193,-0.0724 -0.0764,-0.1624 0.3852,-0.0446 z"
   nodetypes="ccccccccsccccccccccccccccccccccccccccccccccccccccccccccccccccccccccccccccccccccccccccccccsccccc"
   inkscape:connector-curvature="0"
   style="fill:#c9c9c9;fill-opacity:0.99918739;stroke:#7c7c7c;stroke-width:0.28222224;stroke-miterlimit:4;stroke-opacity:1;stroke-dasharray:none"
   inkscape:label="#ME" /><path
   id="WV"
   class="fil0 str0"
   d="m 120.11187,78.621794 0.2177,0.7728 0.222,0.9448 0.3183,-0.4255 0.3354,-0.5043 0.3995,-0.1181 0.21989,-0.242 0.26221,-0.4236 0.2355,0.0904 0.461,-0.075 0.395,-0.3535 0.3079,-0.2463 0.29,-0.0919 0.2161,0.1501 0.5954,0.2581 0.3237,0.2653 0.2295,0.1932 -0.0759,0.8847 -0.9505,-0.354 -0.6897,-0.2217 0.0262,0.8197 -0.3924,0.8981 -0.3833,0.4045 -0.1675,0.4445 -0.4171,0.1007 -0.1136,0.5769 -0.1339,0.6331 -0.6295,0.0865 -0.3902,-0.3666 -0.1661,0.0973 -0.0561,0.87 -0.1862,0.57 -0.7004,1.773 0.1523,0.1762 -0.0171,0.3034 -0.4158,0.6373 -0.2926,-0.0712 -0.4553,0.3658 -0.4097,-0.0696 -0.2813,0.7368 c 0,0 -0.5076,0.2529 -0.6139,0.2484 -0.0257,-0.001 -0.4037,-0.1773 -0.4037,-0.1773 l -0.361,0.2373 -0.3754,0.1849 -0.604,-0.1098 -0.1882,-0.1755 -0.374,-0.4601 -0.5171,-0.2886 -0.3023,-0.5589 -0.7112,-0.5133 -0.1215,-0.3525 -0.4241,-0.2088 -0.142,-0.2491 -0.0816,-0.8288 0.3471,-0.0306 0.3025,-0.1437 0.003,-0.436 0.2457,-0.2433 -0.0153,-0.7938 0.1229,-0.6214 0.2008,-0.1129 0.2152,0.1684 0.0919,0.2772 0.2754,-0.168 0.0641,-0.2596 -0.1949,-0.2719 -0.0198,-0.3834 0.1439,-0.2125 0.3328,-0.5554 0.1942,-0.2407 0.3389,0.0595 0.3474,-0.2742 0.4616,-0.562 0.3289,-0.6321 0.005,-0.8973 0.0362,-0.7965 -0.0383,-0.7413 -0.2055,-0.4764 0.1427,-0.238 0.1939,-0.215 0.7186,3.1065 0.7317,-0.1568 1.9656,-0.3866 z"
   nodetypes="ccccccccccccccccccccccccccccccccccccccccscccccccccccccccccccccccccccccccccccccccccc"
   inkscape:connector-curvature="0"
   style="fill:#c9c9c9;fill-opacity:0.99918739;stroke:#7c7c7c;stroke-width:0.28222224;stroke-miterlimit:4;stroke-opacity:1;stroke-dasharray:none"
   inkscape:label="#WV" /><path
   id="OH"
   class="fil0 str0"
   d="m 115.61787,71.617794 -0.9377,0.6909 -0.5998,0.3897 -0.5105,0.6158 -0.6122,0.6467 -0.5086,0.1543 -0.4596,0.1006 -0.8546,0.4541 -0.3336,0.0428 -0.5661,-0.4578 -0.819,0.1447 -0.424,-0.2089 -0.3905,-0.1941 -0.7738,0.1515 -1.6096,0.3391 -1.7678,0.4374 0.3258,2.3029 0.3958,2.1582 0.6039,3.6853 0.1297,0.7593 0.6558,-0.0542 0.3798,-0.1477 0.5483,0.21 0.3657,0.6733 0.8186,-0.0449 0.3188,0.3195 0.2801,-0.0248 0.39349,-0.233 0.402,0.0382 0.8678,0.0319 0.2577,-0.3514 0.3632,-0.2237 0.3244,-0.1247 0.1254,0.4293 0.2913,0.1387 0.57311,0.3422 0.347,-0.0307 0.2084,-0.0888 0.007,-0.4382 0.2406,-0.2431 -0.0233,-0.7587 c 0,0 0.1295,-0.6581 0.1295,-0.6581 l 0.2021,-0.1057 0.2199,0.1706 0.0997,0.2639 0.2654,-0.1781 0.058,-0.2346 -0.1935,-0.2917 -0.008,-0.3665 0.1106,-0.1757 0.3159,-0.5406 0.1548,-0.2526 0.3388,0.0594 0.3473,-0.2742 0.4617,-0.562 0.4082,-0.6677 0.01,-0.802 0.0363,-0.7964 -0.0716,-0.8377 -0.1758,-0.4499 0.0462,-0.1911 0.2732,-0.2915 -0.4388,-1.4118 -0.6221,-3.0377 z"
   nodetypes="cccccccccccccccccccccccccccccccccccccccccccccccccccccccccccccccc"
   inkscape:connector-curvature="0"
   style="fill:#c9c9c9;fill-opacity:0.99918739;stroke:#7c7c7c;stroke-width:0.28222224;stroke-miterlimit:4;stroke-opacity:1;stroke-dasharray:none"
   inkscape:label="#OH" /><path
   style="fill:#c9c9c9;fill-opacity:0.99918739;stroke:#7c7c7c;stroke-width:0.28222224;stroke-miterlimit:4;stroke-opacity:1;stroke-dasharray:none"
   d="m 98.608877,85.128794 -0.078,-0.508 0.084,-0.876 -0.135,-1.095 -0.337,-2.52 -0.331,-2.418 -0.251,-1.845 0.497,0.115 0.24,0.142 0.177,-0.061 0.319,-0.324 0.437997,-0.279 0.809986,-0.067 3.485,-0.539 0.884,-0.129 0.37,2.51 0.979,5.791 0.142,0.908 -0.04,0.361 0.21,0.273 0.027,0.217 -0.389,0.273 -0.551,0.275 -0.506,0.113 -0.056,0.774 -0.701,0.562 -0.413,0.657 0.071,0.373 -0.08,0.247 -0.53,0.028 -0.266,-0.243 -0.387,0.22 -0.415,0.26 0.05,0.481 -0.188,0.051 -0.083,-0.157 -0.357,-0.22 -0.507,0.239 -0.223,0.488 -0.235,-0.116 -0.245,-0.241 -0.707986,0.113 -0.882997,0.199 -0.451,0.27 -0.013,-0.453 0.04,-0.72 0.337,-0.478 0.252,-0.629 0.377997,-0.685 -0.125,-0.917 z"
   id="IN"
   inkscape:connector-curvature="0" /><path
   style="fill:#c9c9c9;fill-opacity:0.99918739;stroke:#7c7c7c;stroke-width:0.28222224;stroke-miterlimit:4;stroke-opacity:1;stroke-dasharray:none"
   d="m 98.559877,85.077794 -0.043,-0.528 0.068,-0.839 -0.19,-1.129 -0.299,-2.486 -0.329,-2.364 -0.243,-1.833 -0.051,-0.143 -0.15,-0.402 -0.236,-0.578 -0.272,-0.268 -0.253,-0.397 -0.082,-0.866 -7.276,0.787 0.056,0.373 0.369,0.09 0.156,0.173 0.087,0.285 0.648,0.511 0.128,0.356 -0.081,0.548 -0.262,0.593 -0.089,0.403 -0.349,0.308 -0.286,0.124 -0.826,0.26 -0.095,0.295 -0.092,0.331 0.12,0.211 0.305,0.238 -0.003,0.652 -0.278,0.269 -0.096,0.258 0.022,0.434 -0.288,0.087 -0.245,0.194 -0.026,0.219 0.054,0.324 -0.263,0.221 -0.141,0.452 0.103,0.574 0.424,1.139 1.228,1.132 0.904,0.534 -0.001,0.689 0.157,0.209 1.024,0.02 0.448,0.194 -0.079,0.584 -0.316,0.959 -0.083,0.512 0.396,0.595 1.063,0.779 0.734,0.071 0.369,0.779 0.354,0.489 -0.121,0.477 0.289,0.638 0.308,0.31 0.218,-0.15 0.128,-0.336 0.338,-0.294 0.335,-0.115 0.424,0.165 0.589,0.188 0.187,-0.057 0.013,-0.359 -0.224,-0.371 0.029,-0.378 0.282,-0.228 0.475,-0.153 0.197,-0.083 -0.109,-0.214 -0.146,-0.366 0.221,-0.167 0.158,-0.517 -0.022,-0.511 0.053,-0.74 0.347,-0.48 0.265,-0.66 0.322997,-0.65 -0.103,-0.827 z"
   id="IL"
   inkscape:connector-curvature="0" /><path
   id="WI"
   class="fil0 str0"
   d="m 96.488887,73.243794 -0.0365,-0.4987 -0.225,-0.7061 -0.1532,-0.9661 -0.2002,-0.3741 0.1294,-0.4937 0.105,-0.4667 0.2107,-0.4209 -0.1309,-0.5316 -0.1321,-0.5571 0.0627,-0.2851 0.2893,-0.3994 0.003,-0.4359 -0.1394,-0.1978 0.0819,-0.4143 -0.1063,-0.6558 0.3916,-0.9173 0.4081,-1.0974 0.007,-0.3592 -0.0595,-0.1508 -0.1248,0.0833 -0.6182,1.0315 -0.4048,0.6616 -0.2945,0.2971 -0.1103,0.3645 -0.3049,0.1439 -0.1644,0.316 -0.2345,-0.0392 -0.0404,-0.2799 0.1863,-0.394 0.2965,-0.7586 0.2701,-0.2702 0.1386,-0.381 -0.4235,-0.2796 -0.3995,-1.6231 -0.5763,-0.183 -0.329,-0.3491 -1.955,-0.3308 -0.4665,-0.1365 -1.3265,-0.2753 -1.271,-0.1183 -0.642,-0.7804 -0.115,0.0938 -0.1922,-0.0157 -0.243,-0.8279 c -0.7349,-0.0924 -2.0301,1.1674 -2.593,1.1039 l -0.90361,-0.5089 -0.3141,0.4657 -0.014,0.4357 0.0693,1.3376 -0.1691,0.2625 -0.806,0.6577 -0.3157,0.9586 0.0748,0.0324 0.4175,0.3047 0.1355,0.5006 -0.2653,0.521 0.0318,0.6147 0.1272,1.0446 0.4979,0.4455 0.5464,-0.0281 0.31761,0.4911 0.5502,0.0442 0.666,0.8718 1.163,0.5926 0.3503,0.4169 0.2065,1.1674 0.1364,0.5186 0.3774,0.2343 0.0477,0.215 -0.2998,0.5592 0.0626,0.5042 0.4325,0.5939 0.4101,0.1602 0.4773,0.0479 0.2252,0.2072 7.196,-0.7938 z"
   nodetypes="ccccccccccccccccccccccccccccccccccccccccccccccccccccccccccccccccccccccccccccccccccccccccc"
   inkscape:connector-curvature="0"
   style="fill:#c9c9c9;fill-opacity:0.99918739;stroke:#7c7c7c;stroke-width:0.28222224;stroke-miterlimit:4;stroke-opacity:1;stroke-dasharray:none"
   inkscape:label="#WI" /><path
   id="NC"
   class="fil0 str0"
   d="m 132.32386,86.768794 0.3724,0.7604 c -0.1635,0.3108 -0.9511,1.3123 -0.9497,1.4226 0.004,0.3309 3.2465,-0.2347 3.3509,-0.0412 0.3302,0.6119 -2.0121,2.075 -4.0886,1.6988 -1.0415,-0.1887 2.1986,0.614 1.9049,1.234 -0.6324,0.2786 -1.2214,0.1076 -2.2972,1.2441 -0.5976,0.6314 -0.2846,1.947 -0.6174,2.5297 -0.3544,0.6203 -2.3742,2.452 -2.704,2.1368 -0.3071,-0.2934 -0.7629,-0.5338 -1.6806,-1.209 l -2.0714,-1.0979 -0.4702,-0.104 -1.9973,0.3335 -0.6753,0.1537 -0.2841,-0.4979 -0.4906,-0.3104 -2.6234,0.212 -1.1526,0.1875 -1.4054,0.7901 -0.9577,0.4593 -3.3533,0.5828 0.0466,-0.6452 0.2714,-0.2446 0.43261,-0.1249 0.0726,-0.5932 0.6473,-0.469 0.60631,-0.2619 0.6406,-0.5969 0.6783,-0.3681 0.0779,-0.491 0.5865,-0.6454 0.1017,-0.0308 c 0,0 0.009,0.1789 0.138,0.1723 0.1288,-0.007 0.3118,0.0352 0.3118,0.0352 l 0.3315,-0.581 0.3296,-0.1194 0.3632,0.0325 0.2286,-0.5757 0.4425,-0.4328 0.06,-0.3363 0,-0.5784 0.6813,-0.0387 1.14,-0.1944 2.4923,-0.4854 2.3947,-0.4541 3.4096,-0.9239 3.1492,-0.8373 1.7612,-0.4722 0.7953,-0.2243 z"
   nodetypes="cccccccccccccccccccccccccccccccccccccccccccccccccccccccccccscccccccccccccccccccccccccccccccc"
   inkscape:connector-curvature="0"
   style="fill:#c9c9c9;fill-opacity:0.99918739;stroke:#7c7c7c;stroke-width:0.28222224;stroke-miterlimit:4;stroke-opacity:1;stroke-dasharray:none"
   inkscape:label="#NC" /><path
   id="TN"
   class="fil0 str0"
   d="m 110.48187,91.688794 -8.2276,1.2182 -2.496486,0.4105 -0.7322,0.119 -0.616597,0.0273 -0.002,0.6504 -1.302,0.1088 -1.1024,0.1593 -1.2902,0.0468 -0.1674,1.13 -0.2254,0.8805 -0.5022,0.4619 -0.1791,0.7039 -0.0303,0.4117 -0.6255,0.391 0.2609,0.5504 -0.1188,0.6981 -0.1478,0.1329 17.148683,-2.5332 0.0319,-0.6287 0.2763,-0.2505 0.4455,-0.1417 0.0767,-0.5933 0.6309,-0.4614 0.6326,-0.2694 0.62149,-0.5981 0.69021,-0.3566 0.058,-0.4894 0.61511,-0.6634 0.0868,-0.0226 c 0,0 0.0142,0.1787 0.143,0.1721 0.1288,-0.007 0.312,0.0401 0.312,0.0401 l 0.3313,-0.5859 0.3246,-0.1192 0.3649,0.028 0.2257,-0.5718 0.4493,-0.4423 0.0513,-0.3101 0.0189,-0.5893 -0.3437,-0.014 -0.3979,0.3421 -1.1141,0.062 -2.9058,0.528 -1.2689,0.3679 z"
   nodetypes="ccccccccccccccccccccccccccccccsccccccccccccc"
   inkscape:connector-curvature="0"
   style="fill:#c9c9c9;fill-opacity:0.99918739;stroke:#7c7c7c;stroke-width:0.28222224;stroke-miterlimit:4;stroke-opacity:1;stroke-dasharray:none"
   inkscape:label="#TN" /><path
   style="fill:#c9c9c9;fill-opacity:0.99918739;stroke:#7c7c7c;stroke-width:0.28222224;stroke-miterlimit:4;stroke-opacity:1;stroke-dasharray:none"
   d="m 80.686277,95.854794 0.3111,1.071 0.0674,1.302 0.3081,1.724 0.346,5.980996 0.381,0.288 0.462,-0.241 0.446,0.158 0.163,1.034 8.853,-0.636 0.165,-0.34 -0.074,-0.559 -0.316,-0.455 0.243,-0.248 -0.275,-0.384 0.088,-0.403 0.172,-0.897 0.385,-0.347 -0.128,-0.356 0.539,-0.879 0.426,-0.239 -0.031,-0.235 -0.07,-0.286 0.41,-0.908996 0.372,-0.218 0.034,-0.546 0.271,-0.21 -0.504,-0.051 -0.247,-0.623 0.427,-0.399 0.072,-0.324 0.17,-0.65 0.144,-0.524 -0.629,0.146 -0.82,-0.058 0.054,-0.257 0.454,-0.43 0.121,-0.586 -0.316,-0.455 z"
   id="AR"
   inkscape:connector-curvature="0" /><path
   style="fill:#c9c9c9;fill-opacity:0.99918739;stroke:#7c7c7c;stroke-width:0.28222224;stroke-miterlimit:4;stroke-opacity:1;stroke-dasharray:none"
   d="m 77.29098,83.201794 0.5255,0.625 0.5143,0.408 0.3462,0.019 0.246,0.132 0.0243,0.47 -0.2783,0.268 -0.0542,0.366 0.3559,0.525 0.425097,0.449 0.4157,0.269 0.3139,1.832 0.3453,5.702 0.0748,0.739 0.1169,0.847 3.5675,-0.321 3.692,-0.299 3.308,-0.297 1.856,-0.132 0.373,0.524 -0.082,0.529 -0.472,0.405 -0.076,0.295 0.861,0.028 0.615,-0.14 0.228,-0.883 0.056,-0.931 0.314,-0.422 0.401,-0.256 -0.017,-0.483 0.146,-0.314 -0.291,-0.389 -0.203,0.167 -0.336,-0.336 -0.244,-0.742 0.107,-0.405 -0.338,-0.526 -0.329,-0.708 -0.771,-0.087 -1.156,-0.828 -0.308,-0.637 0.101,-0.513 0.279,-0.974 0.049,-0.457 -0.318,-0.147 -1.099,-0.07 -0.178,-0.262 -0.053,-0.668 -0.902,-0.498 -1.175,-1.171 -0.424,-1.138 -0.071,-0.666 0.108,-0.369 -0.426,-0.467 -0.201,-0.352 -10.235197,0.907 -0.3634,0.037 0.2209,0.387 -0.0177,0.364 z"
   id="MO"
   inkscape:connector-curvature="0" /><path
   style="fill:#c9c9c9;fill-opacity:0.99918739;stroke:#7c7c7c;stroke-width:0.28222224;stroke-miterlimit:4;stroke-opacity:1;stroke-dasharray:none"
   d="m 108.74586,103.47179 0.288,1.087 0.387,0.979 0.44,0.516 0.105,0.533 0.316,0.112 0.043,0.331 -0.244,0.781 -0.051,0.515 -0.01,0.308 0.293,0.677 0.096,0.841 -0.109,0.39 0.109,0.123 0.239,0.116 0.059,0.507 0.383,0.511 0.376,0.324 1.264,-0.04 1.718,-0.191 3.418,-0.381 0.862,-0.151 0.729,-0.033 0.05,0.459 0.419,0.106 0.016,-0.693 -0.295,-0.702 0.167,-0.265 0.934,0.08 0.796,0.009 -0.176,-0.989 0.279,-1.604 0.197,-0.676 -0.098,-0.405 0.48,-1.015 -0.092,-0.21 -0.299,0.128 -0.423,-0.184 -0.12,-0.327 -0.235,-0.552 -0.378,-0.313 -0.418,-0.081 -0.297,-0.754 -0.518,-0.978 -0.685,-0.272 -0.351,-0.289 -0.227,-0.399 -0.351,-0.289 -0.371,-0.186 -0.385,-0.442 -0.508,-0.333 -0.736,-0.242996 -0.089,-0.227 -0.41,-0.44 -0.089,-0.226 -0.582,-0.758 -0.56,0.044 -0.617,-0.341 -0.237,-0.193 -0.066,-0.279 0.123,-0.313 0.346,-0.194 -0.118,-0.327 -6.631,1.133 0.018,0.345 0.043,0.331 0.13,0.531 0.606,1.224996 0.467,1.539 0.282,0.96 z"
   id="GA"
   inkscape:connector-curvature="0" /><path
   style="fill:#c9c9c9;fill-opacity:0.99918739;stroke:#7c7c7c;stroke-width:0.28222224;stroke-miterlimit:4;stroke-opacity:1;stroke-dasharray:none"
   d="m 119.94886,103.30279 -0.486,-0.923 -0.686,-0.272 -0.351,-0.29 -0.227,-0.398 -0.351,-0.29 -0.371,-0.186 -0.384,-0.441 -0.508,-0.333 -0.736,-0.243996 -0.089,-0.226 -0.411,-0.44 -0.089,-0.226 -0.583,-0.79 -0.54,0.053 -0.663,-0.35 -0.217,-0.194 -0.066,-0.279 0.113,-0.313 0.352,-0.172 -0.1,-0.358 0.9,-0.416 1.415,-0.801 1.232,-0.192 2.565,-0.199 0.435,0.276 0.295,0.517 0.681,-0.132 1.997,-0.333 0.47,0.103 2.072,1.099 1.677,1.201 -0.819,0.907 -0.362,0.993 -0.026,1.000996 -0.251,0.141 -0.158,0.444 -0.381,0.122 -0.305,0.58 -0.416,0.457 -0.333,0.555 -0.251,0.141 -0.539,0.566 -0.462,0.05 0.181,0.503 -0.753,0.91 -0.325,0.222 -0.275,0.168 -0.423,-0.183 -0.12,-0.328 -0.235,-0.551 -0.378,-0.314 -0.417,-0.081 z"
   id="SC"
   inkscape:connector-curvature="0" /><path
   id="KY"
   class="fil0 str0"
   d="m 114.96487,87.813794 -0.3458,0.3986 -0.5374,0.6609 -0.7399,0.9045 -0.1797,0.2813 0.007,0.3328 -0.6802,0.3781 -0.8737,0.5833 -1.1377,0.3438 -8.2245,1.2002 -2.496586,0.4105 -0.7321,0.119 -0.616597,0.0273 -0.002,0.6692 -1.3021,0.09 -1.1024,0.1593 -1.2732,0.056 0.1816,-0.2186 0.3857,-0.2642 0.0103,-0.508 0.1307,-0.2967 -0.2768,-0.3883 0.1121,-0.3081 0.3462,-0.2997 0.3295,-0.1195 0.4485,0.1819 0.5773,0.1753 0.1776,-0.0604 0.007,-0.3592 -0.226,-0.3728 0.0331,-0.3605 0.2972,-0.246 0.4068,-0.1235 0.2523,-0.1155 -0.1433,-0.2746 -0.1189,-0.3014 0.2319,-0.1698 c 2e-4,-0.006 0.171,-0.5673 0.1673,-0.5886 l 0.4745,-0.2588 0.839597,-0.1971 0.712186,-0.1135 0.2352,0.2459 0.2506,0.1251 0.228,-0.5045 0.4974,-0.229 0.3635,0.2166 0.0735,0.1546 0.1849,-0.0514 -0.05,-0.4656 0.4846,-0.3023 0.3335,-0.1873 0.2573,0.25 0.5283,-0.0342 0.0807,-0.2532 -0.077,-0.3549 0.3817,-0.6536 0.7329,-0.5828 0.0729,-0.7705 0.4623,-0.0961 0.5907,-0.2913 0.3754,-0.2902 -0.0445,-0.2458 -0.1939,-0.2207 0.0656,-0.4782 0.6659,-0.0529 0.3604,-0.1368 0.545,0.1985 0.363,0.6733 0.8179,-0.0404 0.3449,0.3324 0.2562,-0.0366 0.4041,-0.2235 0.8391,0.0477 0.4121,0.0133 0.2521,-0.339 0.4055,-0.247 0.294,-0.1272 0.1263,0.4432 0.3342,0.1506 0.4382,0.3076 0.0651,0.8961 0.1417,0.242 0.4253,0.2248 0.1418,0.3565 0.6909,0.5094 0.31729,0.5581 0.405,0.2421 z"
   nodetypes="ccccccccccccccccccccccccccccccccccccccccccccccccccccccccccccccccccccccccccccccccccccccc"
   inkscape:connector-curvature="0"
   style="fill:#c9c9c9;fill-opacity:0.99918739;stroke:#7c7c7c;stroke-width:0.28222224;stroke-miterlimit:4;stroke-opacity:1;stroke-dasharray:none"
   inkscape:label="#KY" /><path
   id="AL"
   class="fil0 str0"
   d="m 101.22887,114.70479 -0.35471,-2.2524 -0.59139,-2.9427 -0.0894,-2.2252 -0.1252,-4.9147 -0.161986,-2.631596 -0.0262,-1.0164 7.058486,-0.9373 -0.006,0.3463 0.043,0.331 0.13079,0.5315 0.6057,1.224696 0.4671,1.5394 0.2822,0.9595 0.2972,0.7535 0.2887,1.0873 0.38651,0.9797 0.4399,0.5156 0.10509,0.5329 0.3157,0.1118 0.0429,0.331 -0.24359,0.7815 -0.0508,0.5152 -0.01,0.3081 0.29329,0.6769 0.0952,0.8409 -0.109,0.3901 0.1097,0.1225 0.23841,0.1159 0.0759,0.4541 -0.8948,-0.01 -1.0766,0.1579 -4.0461,0.6697 -1.6474,0.3079 -0.0118,0.4568 0.2979,0.2666 0.4281,0.2855 0.1575,1.25 -0.8621,0.4524 c -1.2241,0.6039 -0.1883,0.2604 -0.893,-0.482 -0.1645,-0.1732 -0.4468,0.1079 -0.52169,0.0935 l -0.43791,0.0225 z"
   nodetypes="cccccccccccccccccccccccccccccccccccccccccccccccc"
   inkscape:connector-curvature="0"
   style="fill:#c9c9c9;fill-opacity:0.99918739;stroke:#7c7c7c;stroke-width:0.28222224;stroke-miterlimit:4;stroke-opacity:1;stroke-dasharray:none"
   inkscape:label="#AL" /><path
   id="LA"
   class="fil0 str0"
   d="m 97.499887,114.69779 -0.5493,-0.4738 0.1159,-0.878 -0.1127,-0.1358 -1.4675,0.2352 -3.9842,0.2779 -0.1287,-0.373 0.0763,-1.3446 0.4797,-0.9674 0.7306,-1.4155 -0.1111,-0.3745 0.1947,-0.118 0.0571,-0.3125 -0.3811,-0.3063 -0.0337,-0.3062 -0.3273,-0.6721 -0.0753,-1.0011 -8.83161,0.6012 0.0829,1.5136 0.186,1.4766 0.1411,0.6089 0.4344,0.6301 0.18681,0.7878 0.7371,0.832 0.0626,0.5042 0.1149,0.1029 -0.0401,1.3432 -0.4323,0.8197 0.2718,0.3122 -0.0888,0.4033 -0.0493,1.1625 -0.1924,0.5173 0.0491,0.5709 0.7343,-0.2788 1.9318,-0.0667 1.6777,0.4775 1.0396,0.1259 0.5805,-0.2606 0.5245,0.1524 0.5231,0.1268 0.1116,-0.3389 -0.5245,-0.1524 -0.4081,0.0979 -0.4512,-0.2331 c 0,0 0.0152,-0.2058 0.117,-0.2367 0.1017,-0.0308 0.4814,-0.1785 0.4814,-0.1785 l 0.2953,0.2154 0.2754,-0.1679 0.5204,0.0757 0.2518,0.3715 0.07,0.3552 0.7239,0.014 0.2979,0.2666 -0.1156,0.2623 -0.1995,0.1383 0.2708,0.2424 1.3686,0.4934 0.5561,-0.2336 c 0.0665,-0.1934 0.6173,-0.3447 1.1626,-1.175 0.0266,-0.0405 2.3681,0.8997 2.395,0.8585 0.188897,-0.2884 -2.0024,-1.9202 -2.1101,-2.2581 -0.258,-0.8088 -2.947,-1.1312 -2.7869,-1.3995 0.1244,-0.2087 3.7612,0.1202 3.9781,-0.322 l -0.1888,-0.3728 -0.2183,-0.6199 z"
   nodetypes="ccccccccccccccccccccccccccccccccccccccccccccscccccccccccccccccccccccccccccsccccccccccccccccccccccccccccc"
   inkscape:connector-curvature="0"
   style="fill:#c9c9c9;fill-opacity:0.99918739;stroke:#7c7c7c;stroke-width:0.28222224;stroke-miterlimit:4;stroke-opacity:1;stroke-dasharray:none"
   inkscape:label="#LA" /><path
   style="fill:#c9c9c9;fill-opacity:0.99918739;stroke:#7c7c7c;stroke-width:0.28222224;stroke-miterlimit:4;stroke-opacity:1;stroke-dasharray:none"
   d="m 98.096877,115.56179 -0.17,0.132 -0.199,-0.384 -0.214,-0.606 -0.573,-0.478 0.137,-0.886 -0.117,-0.139 -0.289,0.051 -1.255,0.204 -3.908,0.26 -0.141,-0.346 0.071,-1.331 0.45,-0.923 0.758,-1.489 -0.091,-0.381 0.192,-0.114 0.054,-0.307 -0.387,-0.31 -0.036,-0.337 -0.326,-0.637 -0.066,-0.942 0.191,-0.403 -0.063,-0.538 -0.307,-0.473 0.231,-0.247 -0.271,-0.383 0.059,-0.264 0.198,-1.045 0.38,-0.343 -0.122,-0.369 0.54,-0.868 0.44,-0.238 -0.049,-0.263 -0.06,-0.264 0.413,-0.903996 0.363,-0.214 0.017,-0.142 5.918997,-0.92 0.081,0.992 0.161986,2.631996 0.125,4.914 0.089,2.226 0.592,2.942 0.346,2.106 -0.03,0.201 -0.825,0.042 -0.238,-0.115 -0.337986,-0.034 -1.065997,0.362 -0.29,-0.113 z"
   id="MS"
   inkscape:connector-curvature="0" /><path
   style="fill:#c9c9c9;fill-opacity:0.99918739;stroke:#7c7c7c;stroke-width:0.28222224;stroke-miterlimit:4;stroke-opacity:1;stroke-dasharray:none"
   d="m 90.559877,76.375794 -0.226,0.525 -0.105,0.44 -0.333,0.271 -0.269,0.104 -0.874,0.34 -0.19,0.62 0.128,0.211 0.307,0.251 -0.012,0.641 -0.269,0.257 -0.109,0.266 0.043,0.438 -0.297,0.088 -0.25,0.188 -0.033,0.216 0.061,0.333 -0.238,0.189 -0.419,-0.475 -0.221,-0.377 -10.453997,0.937 -0.1449,0.033 -0.364,-0.697 -0.0907,-1.046 -0.2887,-0.638 -0.1522,-0.826 -0.3943,-0.559 -0.185,-0.752 -0.4989,-1.171 -0.2261,-0.84 -0.2364,-0.332 -0.2774,-0.421 0.2717,-0.782 0.1719,-0.915 -0.454,-0.303 -0.0954,-0.43 0.1252,-0.405 0.2732,-0.014 13.159997,-0.879 0.167,0.655 0.371,0.228 0.053,0.223 -0.296,0.553 0.057,0.505 0.432,0.58 0.413,0.184 0.495,0.054 0.111,0.126 0.065,0.439 0.359,0.073 0.162,0.186 0.095,0.289 0.632,0.5 0.129,0.372 z"
   id="IA"
   inkscape:connector-curvature="0" /><path
   id="MN"
   class="fil0 str0"
   d="m 73.64768,63.551794 -0.1421,-1.3338 -0.3513,-1.1418 -0.4018,-2.1179 -0.1533,-1.5507 -0.3195,-0.5273 -0.2961,-0.7822 -0.0842,-1.6268 0.0774,-0.6202 -0.3347,-0.8471 4.8016,-0.2416 -0.016,-1.3064 0.1017,-0.0309 0.3646,0.0582 0.3157,0.1119 0.1738,0.8625 0.2821,0.9594 0.2708,0.2424 3.355697,0.0184 0.0635,0.2274 c 0.5879,-4e-4 0.2376,1.0521 1.6295,1.5271 0.4261,0.1454 2.00801,-0.0437 2.57471,-0.0421 1.4442,0.004 5.1852,-0.5675 1.6237,1.2788 l -0.4683,0.4341 -0.3573,0.5823 -0.3289,0.6321 -0.2767,0.1424 -0.6802,0.8296 -0.2048,0.0361 -0.667,0.4715 -0.36621,0.5271 -0.0103,0.5064 0.0809,1.2712 -0.2055,0.2783 -0.7789,0.6362 -0.3064,0.9643 0.4759,0.3296 0.1347,0.5047 -0.2691,0.5274 0.0579,0.5912 0.1139,1.0613 0.507,0.4498 0.5305,-0.0273 0.32701,0.4798 0.5425,0.0519 0.6613,0.8651 1.163,0.5928 0.365,0.437 0.1596,1.0128 -12.930807,0.8474 -0.3458,-5.6387 -0.0972,-0.4662 -0.6837,-0.5085 -0.1971,-0.2798 -0.0131,-0.253 0.3147,-0.27 0.2074,-0.2281 0.0102,-0.5081 z"
   nodetypes="ccccccccccccccccccccccccccccccccccccccccccccccccccccccccccccccccccccccccccccccccccccccccccc"
   inkscape:connector-curvature="0"
   style="fill:#c9c9c9;fill-opacity:0.99918739;stroke:#7c7c7c;stroke-width:0.28222224;stroke-miterlimit:4;stroke-opacity:1;stroke-dasharray:none"
   inkscape:label="#MN" /><path
   style="fill:#c9c9c9;fill-opacity:0.99918739;stroke:#7c7c7c;stroke-width:0.28222224;stroke-miterlimit:4;stroke-opacity:1;stroke-dasharray:none"
   d="m 65.71818,103.27779 0.722,0.543 0.3373,0.164 0.1074,-0.042 0.0924,-0.331 0.2336,0.278 0.3278,-0.017 -0.0112,-0.217 0.4483,0.195 -0.041,0.618 0.6576,0.002 0.4101,0.161 0.6613,0.074 0.4157,0.269 0.3474,-0.344 0.552,0.08 0.4288,0.522 0.1458,-0.008 0.0187,0.362 0.3699,0.089 0.3456,-0.38 0.297,0.093 0.4007,-0.02 0.1663,0.39 1.021,0.277 0.2129,-0.12 0.2578,-0.665 0.1822,-0.01 0.1989,0.316 0.6614,0.075 0.5941,0.187 0.481,0.12 0.284,-0.16 0.0886,-0.403 0.6922,-0.035 0.3354,0.127 0.4202,-0.348 0.1822,-0.009 0.1223,0.247 0.655797,-0.033 0.2382,-0.339 0.2951,0.057 0.3484,0.381 0.525,0.263 0.5175,0.118 0.319,0.161 -0.367,-5.881 -0.3085,-1.723996 -0.0981,-1.402 -0.283,-1.022 -0.1827,-1.129 -0.0421,-0.603 -1.931297,0.15 -7.3987,0.309 -7.1933,0.044 -3.8818,-0.017 -2.6688,-0.065 -0.0507,1.739 3.2704,0.015 5.1184,-0.057 -0.1721,3.880996 0.073,2.823 z"
   id="OK"
   inkscape:connector-curvature="0" /><path
   id="TX"
   class="fil0 str0"
   d="m 57.37368,96.351794 3.4334,-2e-4 4.9636,-0.0743 -0.18,3.728096 0.1013,2.8729 0.0278,0.3287 0.7234,0.5681 0.3285,0.2125 0.1841,-0.0982 0.0446,-0.2904 0.1964,0.2758 0.3369,-0.0104 -0.0123,-0.2288 0.274,0.1393 0.1848,0.0552 -0.0248,0.6304 0.6522,-0.0187 0.4759,0.1652 0.6345,0.0507 0.3964,0.3092 0.3214,-0.3457 0.5986,0.0666 0.3803,0.4917 0.1739,0.0419 -0.0095,0.3121 0.3593,0.1071 0.3544,-0.344 0.3449,0.0798 0.3555,-0.0127 0.1686,0.3774 1.0257,0.2824 0.2475,-0.1343 0.2032,-0.6728 0.0542,-0.003 0.1451,0.005 0.2128,0.317 0.6316,0.073 0.5409,0.1502 0.5557,0.161 0.2853,-0.1693 0.0931,-0.4035 0.71,-0.0296 0.2957,0.1324 0.4289,-0.356 0.1762,-0.002 0.1487,0.2469 0.646097,-0.0333 0.2254,-0.3332 0.3009,0.049 0.3297,0.3641 0.5777,0.2943 0.4622,0.1046 0.2477,0.1141 0.4062,0.2957 0.474,-0.2349 0.4381,0.158 0.1398,0.9609 0.0731,1.5345 0.1873,1.5019 0.1414,0.5643 0.4624,0.677 0.18361,0.7754 0.7171,0.8411 0.057,0.4957 0.1254,0.1182 -0.0478,1.3311 -0.4166,0.8151 0.2619,0.3279 -0.0813,0.3749 -0.0461,1.1763 -0.2124,0.5402 0.0756,0.5513 -0.88961,0.2972 -1.5343,0.7966 -0.1387,0.3148 -0.3962,0.3279 -0.323,0.2473 -0.1994,0.1385 -0.8579,0.89 0,0 -1.940897,0.1248 -0.9397,1.0695 -0.2222,0.734 -1.2583,0.4481 0.0886,0.4066 -0.5357,0.1301 -0.5732,0.901 -0.6413,0.0843 -0.1387,0.3147 0.3765,0.2882 -0.1868,0.881 -0.3176,1.3492 -0.0918,0.7224 0.1486,0.3768 0.3403,1.0846 0.2048,0.9634 0.3058,0.42 -0.1426,0.238 -0.0673,0.7971 -0.9333,-0.4216 c -0.448,-0.0678 -1.1208,-0.1595 -1.5164,-0.2464 -1.0515,-0.2312 -2.1365,-1.0409 -3.3514,-0.6763 l -0.2796,-1.4686 -0.259,-1.0119 -0.531,-0.2802 -0.1216,-0.3526 0.0978,-0.1076 0.0237,-0.5394 -0.2114,-0.0916 -0.111,-0.1481 0.1704,-0.7008 -0.2761,-0.3446 -0.5258,-0.178 -0.5766,-0.6624 -0.6209,-1.0188 -0.691,-0.3745 0.0099,-0.3081 -0.9505,-1.899 -0.1633,-0.658 -0.2992,-0.2921 -0.0376,-0.2288 -0.9967,-0.7945 -0.4373,-0.4644 -0.0093,-0.179 -0.4293,-0.311 -1.0912,-0.1233 -1.1901,-0.0412 -0.508,-0.3327 -0.7067,0.3183 -0.5548,0.2593 -0.3342,0.5298 -0.1241,0.5959 -0.6452,1.0072 -0.3666,0.4033 -0.42,-0.1321 -0.2926,-0.1644 -0.3144,-0.0863 -0.6367,-0.3261 -0.0053,-0.1022 -0.2993,-0.2921 -0.841496,-0.2899 -0.5664,-1.1224 -0.3554,-0.5918 c -0.0607,-1.1748 -0.3302,-1.8238 -0.2117,-2.9956 l -1.5134,-0.0238 -0.1975,-0.323 -0.8157,-0.2912 -0.2194,-0.245 -1.1982,-1.1942 -0.2325,-0.5006 -0.7655,-0.3194 -0.2676,-0.6783 -0.4359,-0.4389 -0.3131,-0.0607 -0.1417,-0.7344 1.2806,0.0428 4.6489,0.1956 4.639496,0.0148 0.1967,-3.0958 0.1646,-8.816496 0.1016,-2.9775 0.2188,-0.007 z"
   nodetypes="ccccccccccccccccccccccccccccccccccccccccccccccccccccccccccccccccccccccccccccccccccccccccccccccccccccccccccccccccccccccccccccccccccccccccccccccccccccccccccccccccccccccccccccccccccccccccccc"
   inkscape:connector-curvature="0"
   style="fill:#c9c9c9;fill-opacity:0.99918739;stroke:#7c7c7c;stroke-width:0.28222224;stroke-miterlimit:4;stroke-opacity:1;stroke-dasharray:none"
   inkscape:label="#TX" /><path
   style="fill:#c9c9c9;fill-opacity:0.99918739;stroke:#7c7c7c;stroke-width:0.28222224;stroke-miterlimit:4;stroke-opacity:1;stroke-dasharray:none"
   d="m 57.13828,96.369794 0.2515,0.007 0.0401,-1.771 -16.658996,-0.829 -1.8024,19.186996 2.4797,0.188 0.1241,-1.595 4.681,0.207 -0.1624,-0.744 1.3816,0.012 4.8316,0.218 4.358696,0.044 0.2,-2.977 0.1573,-8.866996 z"
   id="NM"
   inkscape:connector-curvature="0" /><path
   style="fill:#c9c9c9;fill-opacity:0.99918739;stroke:#7c7c7c;stroke-width:0.28222224;stroke-miterlimit:4;stroke-opacity:1;stroke-dasharray:none"
   d="m 70.08408,84.173794 7.067,-0.207 0.8119,-0.042 0.3658,0.324 0.3213,-0.02 0.2697,0.147 0.0147,0.476 -0.2773,0.288 -0.0347,0.355 0.3215,0.523 0.496597,0.481 0.384,0.236 0.2993,1.767 0.3254,5.705 -2.008897,0.135 -7.3476,0.307 -7.1166,0.04 -3.9347,0.003 0.0918,-10.246 3.5243,-0.074 z"
   id="KS"
   inkscape:connector-curvature="0" /><path
   style="fill:#c9c9c9;fill-opacity:0.99918739;stroke:#7c7c7c;stroke-width:0.28222224;stroke-miterlimit:4;stroke-opacity:1;stroke-dasharray:none"
   d="m 63.67248,84.361794 -3.5521,0.059 -0.0036,-3.381 -5.1735,-0.197 0.332,-6.995 2.4856,0.036 3.2151,0.015 2.8508,0.035 3.7979,-0.015 1.7084,-0.16 0.3465,0.344 0.7894,0.431 0.1896,0.135 0.6809,-0.252 0.6156,-0.104 0.4352,-0.059 0.3027,0.202 0.6596,0.22 0.4867,0.228 0.0859,0.25 0.1625,0.317 0.2915,-0.015 0.1275,0.001 0.1808,0.733 0.5346,1.315 0.122,0.59 0.433,0.576 0.1326,0.804 0.2908,0.657 0.0932,1.022 0.5722,1.083 -0.0017,0.365 0.5962,0.841 0.459,0.476 -0.8045,0.041 -6.9362,0.209 z"
   id="NE"
   inkscape:connector-curvature="0" /><path
   style="fill:#c9c9c9;fill-opacity:0.99918739;stroke:#7c7c7c;stroke-width:0.28222224;stroke-miterlimit:4;stroke-opacity:1;stroke-dasharray:none"
   d="m 73.95108,71.748794 0.5083,-0.024 -0.0606,-0.79 -0.3001,-4.769 -0.1292,-0.591 -0.6762,-0.493 -0.1703,-0.257 -0.0231,-0.254 0.3097,-0.258 0.2305,-0.276 0.0173,-0.422 -9.2957,0.225 -8.76,-0.096 -0.3273,10.115 2.3323,0.023 3.1886,0.027 2.8348,0.001 3.7992,0.011 1.9058,-0.165 0.3317,0.339 0.8544,0.471 0.1276,0.108 0.7117,-0.267 1.0372,-0.15 0.2779,0.197 0.6829,0.218 0.4827,0.234 0.0757,0.232 0.184,0.346 0.3549,-0.051 -0.0124,-0.091 -0.501,-0.742 0.2578,-0.761 0.1897,-0.943 -0.4603,-0.306 -0.0838,-0.431 z"
   id="SD"
   inkscape:connector-curvature="0" /><path
   style="fill:#c9c9c9;fill-opacity:0.99918739;stroke:#7c7c7c;stroke-width:0.28222224;stroke-miterlimit:4;stroke-opacity:1;stroke-dasharray:none"
   d="m 71.89328,54.465794 0.068,-0.61 -0.337,-0.85 -4.5684,0.146 -2.9676,0.05 -4.2351,0.013 -3.6737,-0.149 -0.5645,10.68 8.7802,0.078 9.264,-0.257 -0.1669,-1.329 -0.323,-1.064 -0.408,-2.044 -0.1628,-1.733 -0.3023,-0.473 -0.3225,-0.807 z"
   id="ND"
   inkscape:connector-curvature="0" /><path
   style="fill:#c9c9c9;fill-opacity:0.99918739;stroke:#7c7c7c;stroke-width:0.28222224;stroke-miterlimit:4;stroke-opacity:1;stroke-dasharray:none"
   d="m 54.98408,80.849794 0.48,-14.07 -17.118496,-1.252 -1.5201,14.103 z"
   id="WY"
   inkscape:connector-curvature="0" /><path
   style="fill:#c9c9c9;fill-opacity:0.99918739;stroke:#7c7c7c;stroke-width:0.28222224;stroke-miterlimit:4;stroke-opacity:1;stroke-dasharray:none"
   d="m 27.897984,53.766794 0.6082,1.165 -0.1812,0.734 0.3289,0.708 0.5212,0.191 0.8244,1.665 0.4555,0.48 0.0822,0.177 0.5558,0.153 0.0897,0.322 -0.9853,2.841 0.0206,0.398 0.4269,0.485 0.1458,-0.007 0.7406,-0.51 0.1,-0.186 0.2605,0.095 0.007,0.834 0.5401,1.966 0.4942,0.373 0.1513,0.101 0.3102,0.346 -0.0449,0.546 0.1374,0.537 0.1896,0.135 0.3456,-0.38 0.4371,-0.023 0.5231,0.227 0.3932,-0.165 0.6558,-0.034 0.596,0.223 0.4334,-0.095 0.0485,-0.473 0.4679,-0.133 0.2298,0.206 0.0991,0.502 0.234,0.12 0.2104,-1.76 17.118696,1.247 0.6963,-13.718 -4.910596,-0.192 -4.6915,-0.323 -4.6954,-0.398 -5.1955,-0.579 -2.9643,-0.385 -5.2709,-0.828 z"
   id="MT"
   inkscape:connector-curvature="0" /><path
   style="fill:#c9c9c9;fill-opacity:0.99918739;stroke:#7c7c7c;stroke-width:0.28222224;stroke-miterlimit:4;stroke-opacity:1;stroke-dasharray:none"
   d="m 40.727684,93.961794 19.322396,0.754 0.0749,-13.691 -18.170796,-1.069 z"
   id="CO"
   inkscape:connector-curvature="0" /><path
   id="ID"
   class="fil0 str0"
   d="m 21.972084,73.769794 1.1093,-5.6413 0.184,-0.68 0.3521,-0.9606 -0.2191,-0.3512 -0.3998,0.0387 -0.1359,-0.1561 0.0635,-0.1845 0.0294,-0.4909 0.6654,-0.9041 0.2877,-0.0873 0.1728,-0.1902 0.0649,-0.5108 0.1401,-0.116 0.5716,-0.9537 0.5837,-0.7188 0.006,-0.5983 -0.568,-0.3876 -0.2807,-0.6833 1.6527,-10.1277 2.1745,0.2888 -0.5274,3.4174 0.6286,1.1544 -0.2138,0.75 0.3519,0.7177 0.5103,0.1727 0.6893,1.4797 0.596,0.6728 0.0902,0.1766 0.5417,0.1533 0.076,0.3286 -0.9686,2.8048 -0.005,0.4071 0.4465,0.5036 0.1438,-0.0151 0.7578,-0.5187 0.099,-0.1787 0.2543,0.0913 -6e-4,0.8489 0.5395,1.9671 0.6503,0.4704 0.2856,0.3286 -0.0808,0.6517 0.1929,0.4351 0.1781,0.1639 0.3758,-0.3922 0.4542,-0.0156 0.4761,0.1872 0.4374,-0.1307 0.6032,-0.0565 0.6471,0.2204 0.4347,-0.0694 0.0543,-0.4844 0.461,-0.145 0.2133,0.2294 0.0943,0.4621 0.2369,0.1801 -0.8975,8.5457 c 0,0 -14.1532,-1.919 -15.2798,-2.0994 z"
   nodetypes="ccccccccccccccccccccccccccccccccccccccccccccccccccccccccccc"
   inkscape:connector-curvature="0"
   style="fill:#c9c9c9;fill-opacity:0.99918739;stroke:#7c7c7c;stroke-width:0.28222224;stroke-miterlimit:4;stroke-opacity:1;stroke-dasharray:none"
   inkscape:label="#ID" /><path
   style="fill:#c9c9c9;fill-opacity:0.99918739;stroke:#7c7c7c;stroke-width:0.28222224;stroke-miterlimit:4;stroke-opacity:1;stroke-dasharray:none"
   d="m 40.669184,79.859794 1.3153,0.068 -1.2291,14.06 -13.4417,-1.191 2.3595,-17.964 7.5255,0.999 -0.1496,1.693 -0.2606,2.102 1.2517,0.083 z"
   id="UT"
   inkscape:connector-curvature="0" /><path
   id="AZ"
   class="fil0 str0"
   d="m 25.836384,108.67279 1.9941,1.1019 2.4142,1.2341 2.7609,1.4469 1.9775,0.2827 3.9979,0.223 1.7746,-18.978596 -13.4399,-1.1973 -0.3584,2.6205 -0.2559,0.0157 -0.2517,0.4297 -0.4016,0.003 -0.2228,-0.4235 -0.4399,-0.0317 -0.1551,-0.1733 -0.1457,0.007 -0.1411,0.0979 -0.3012,0.1786 0.0388,1.1036 -0.0224,0.273 0.0119,1.993 -0.219,0.3556 -0.064,0.5289 0.4774,0.754796 0.248,0.9114 0.1359,0.1562 0.1687,0.0819 5e-4,0.3625 -0.2438,0.23 -0.5324,0.2993 -0.2937,0.3232 -0.2069,0.5906 -0.0508,0.7819 -0.433,0.4573 -0.3222,0.1254 0.0284,0.13 -0.0588,0.2749 0.0794,0.1228 0.5876,0.0604 -0.0687,0.4385 c -0.6264,1.0174 1.2365,0.0622 1.3762,0.2627 0.1397,0.2006 -1.4436,1.5571 0.557,2.5454 z"
   nodetypes="cccccccccccccccccccccccccccccccccccccccccccccc"
   inkscape:connector-curvature="0"
   style="fill:#c9c9c9;fill-opacity:0.99918739;stroke:#7c7c7c;stroke-width:0.28222224;stroke-miterlimit:4;stroke-opacity:1;stroke-dasharray:none"
   inkscape:label="#AZ" /><path
   style="fill:#c9c9c9;fill-opacity:0.99918739;stroke:#7c7c7c;stroke-width:0.28222224;stroke-miterlimit:4;stroke-opacity:1;stroke-dasharray:none"
   d="m 25.261384,95.233794 -0.1658,0 -0.4292,0.283 0.006,1.075 -0.0104,0.917 0.0148,1.361 -0.2135,0.343 -0.3974,-0.15 -11.8599,-15.91 2.51588,-11.08103 14.95912,2.74203 -2.7124,20.564 -0.2891,0.07 -0.2309,0.394 -0.3781,0.021 -0.2569,-0.422 -0.4203,-0.038 z"
   id="NV"
   inkscape:connector-curvature="0"
   sodipodi:nodetypes="cccccccccccccccccc" /><path
   style="fill:#c9c9c9;fill-opacity:0.99918739;stroke:#7c7c7c;stroke-width:0.28222224;stroke-miterlimit:4;stroke-opacity:1;stroke-dasharray:none"
   d="m 22.924584,65.800794 0.0537,-0.518 0.6654,-0.904 0.2825,-0.188 0.1727,-0.191 0.2076,-0.576 0.5985,-0.929 0.5365,-0.64 0.008,-0.548 -0.541,-0.364 -0.3222,-0.719 -2.0474,-0.467 -2.4333,-0.437 -2.458,0.145 -0.0841,-0.213 -0.8574,0.37 -0.7151,-0.054 -0.3955,-0.233 -0.1948,0.119 -0.7486,0.002 -0.2845,-0.203 -0.8547,-0.282 -0.1266,0.025 -0.7043,-0.2 -0.2947,0.306 -0.9863,-0.004 -0.9808,-0.602 0.1027,-0.132 -0.0272,-1.231 -0.3961,-0.596 -0.6603998,-0.057 -0.1298,-0.392 -0.3789,-0.054 -0.9071,0.373 -0.3077,1.041 -0.4332,1.612 -0.4623,1.049 -1.4374,1.859 -0.8032,2.432 -1.7068,3.162 -0.1256,1.773 19.3205098,4.15216 1.06039,-5.44616 0.1329,-0.677 0.3291,-0.909 -0.1076,-0.178 -0.4011,0.013 -0.2179,-0.254 z"
   id="OR"
   inkscape:connector-curvature="0"
   sodipodi:nodetypes="ccccccccccccccccccccccccccccccccccccccccccccccccc" /><path
   id="WA"
   class="fil0 str0"
   d="m 14.680284,47.816794 0.791,0.1791 1.3811,0.2365 3.2405,0.7302 3.704,0.7063 2.4519,0.3822 -1.6518,10.1664 -2.0119,-0.4553 -2.5002,-0.4374 -2.4264,0.1303 -0.0836,-0.2089 -0.8743,0.3905 -0.7383,-0.0788 -0.3551,-0.2329 -0.2038,0.1148 -0.7557,0.0167 -0.2817,-0.1995 -0.8559,-0.2908 -0.1159,0.0293 -0.7118,-0.205 -0.2869,0.3029 -1.0008,0.004 -0.978,-0.6038 0.1165,-0.1539 -0.0435,-1.215 -0.395,-0.5884 -0.6606998,-0.0623 -0.1285,-0.3914 -0.3663,-0.0535 -0.5564,0.2237 -0.3869,-0.4905 0.0277,-0.4628 0.4352,-0.0736 0.2245,-0.6524 -0.4213,-0.1577 -0.005,-0.5892 0.6902,-0.1381 -0.4604,-0.412 -0.2901,-1.1128 0.0793,-0.4655 -0.0649,-1.2525 c 0.3586,-2.4792 0.4833,-2.9702 3.0773998,-1.862 0,0 0.4934,0.349 0.5224,0.6979 0.029,0.3489 -0.6675,1.9481 -0.6675,1.9481 0,0 0.2032,1.3085 0.6675,1.6865 0.4643,0.378 0.9868,-0.1744 1.1609,-0.378 0.1741,-0.2036 1.5671,-1.7156 1.5671,-1.7156 l 0.1411,-3.006 z"
   nodetypes="cccccccccccccccccccccccccccccccccccccccccccccccccccccccccccccccccccccccccccccccccccccscccccc"
   inkscape:connector-curvature="0"
   style="fill:#c9c9c9;fill-opacity:0.99918739;stroke:#7c7c7c;stroke-width:0.28222224;stroke-miterlimit:4;stroke-opacity:1;stroke-dasharray:none"
   inkscape:label="#WA" /><path
   id="CA"
   class="fil0 str0"
   d="m 23.052484,106.32879 0.6239,-0.1096 0.2203,-0.3303 0.0627,-0.4695 -0.5707,-0.0642 -0.0875,-0.1014 0.0595,-0.3253 -0.0302,-0.0919 0.3013,-0.1137 0.4616,-0.4729 0.0518,-0.7946 0.1921,-0.5494 0.2919,-0.3584 0.5477,-0.2802 0.2504,-0.2674 -0.006,-0.334 -0.163,-0.0836 -0.1718,-0.1612 -0.2319,-0.9153 -0.4674,-0.741796 0.0614,-0.5588 -0.3939,-0.143 -11.8567,-15.9065 2.4586,-11.16919 -11.9087998,-2.65211 -0.9304,3.1569 c -0.0249,3.1422 -0.4793,7.1755 1.3686,9.8727 l 0.4004,0.7483 0.2391,0.6285 -0.025,0.5139 -0.0476,0.0793 0.0172,0.3323 0.9532,0.9506 -0.0575,0.3873 -0.0845,0.3633 -0.0871,0.312 0.0932,1.3023 0.3653,0.5707 0.3303,0.3931 0.4418,0.0542 0.1771,0.4266 -0.1513,0.5716 -0.3216,0.2729 -0.1803,0.009 -0.0971,0.6201 0.1011,0.4562 0.5509,0.6637 0.3013,0.8303 0.2702,0.7293 0.2312,0.4751 c 3.8785998,4.5134 10.8207998,6.105596 9.2868998,9.993596 0.0468,0.9052 0.9739,1.8339 1.7775,1.9077 l 3.1651,0.2727 2.217,0.0998 z"
   nodetypes="ccccccccccccccccccccccccccccccccccccccccccccccccccccccccccccccccccccccccccccccccccccccccccccccccccccccccccccccccccccccccccccccccscc"
   inkscape:connector-curvature="0"
   style="fill:#c9c9c9;fill-opacity:0.99918739;stroke:#7c7c7c;stroke-width:0.28222224;stroke-miterlimit:4;stroke-opacity:1;stroke-dasharray:none"
   inkscape:label="#CA"
   sodipodi:nodetypes="ccccccccccccccccccccccccccccccccccccccccccccccccccccccc" /><path
   style="fill:#c9c9c9;fill-opacity:0.99918739;stroke:#7c7c7c;stroke-width:0.28222218;stroke-miterlimit:4;stroke-opacity:1;stroke-dasharray:none"
   d="m 109.05241,0.14111031 c -0.20854,-0.004 -0.40147,0.0647033 -0.55562,0.2645833 -0.4933,0.63969999 -1.39287,2.12548589 -1.79917,2.12548589 -0.40631,0 -0.69867,-0.7306082 -1.07597,-1.1377082 -0.3773,-0.40709997 -0.90526,0.061736 -1.34056,0.061736 -0.43529,0 -0.9525,0.2028472 -0.9525,0.2028472 0,0 -0.46827,0.6668237 -0.75847,1.6845137 -0.2902,1.0177 -0.0265,1.7462498 -0.0265,1.7462498 0,0 1.07682,0.5797831 1.36702,0.8995832 0.29021,0.3198001 0.11694,1.9774443 0.29104,2.1519442 0.1741,0.1745 0.86431,0.2028472 0.86431,0.2028472 0,0 0.64466,1.3653565 0.93486,1.4816665 0.2902,0.1163001 0.92265,2.3847159 0.66145,3.2279169 -0.26119,0.8432 -0.69673,1.164166 -0.69673,1.164166 0,0 -0.11756,1.281704 0.11465,1.543403 0.2322,0.261699 2.58978,1.216431 3.02507,1.41993 0.4353,0.203499 2.0872,3.781484 3.2191,4.392083 1.1319,0.610599 1.27882,1.305277 1.27882,1.305277 0,0 -0.64439,0.414514 -1.13771,0.414514 -0.49329,0 -1.06764,2.031187 -1.56104,3.077986 -0.49339,1.046799 -2.38125,3.227916 -2.38125,3.227916 0,0 -0.35169,0.374295 -0.26459,0.723195 0.0871,0.3489 0.84377,1.664332 1.07598,1.693333 0.23221,0.029 0.95419,0.844609 0.635,1.455208 -0.3192,0.610599 -0.20285,0.635 -0.20285,0.635 0,0 0.87361,0.928263 1.36701,1.393472 0.4934,0.465201 0.34796,2.303763 0.20285,2.478264 -0.14509,0.1745 0.3175,0.635 0.3175,0.635 l 0.89958,1.455208 c 0,0 -0.29018,0.202847 -0.89958,0.202847 -0.6094,0 -0.66146,1.728611 -0.66146,1.728611 -0.002,-0.002 -0.007,0.002 -0.009,0 -0.2902,-0.232599 -0.59572,-0.275717 -1.19062,0.0441 -0.5949,0.3198 -0.39313,0.494541 -0.78493,0.291042 -0.3918,-0.203499 -0.28909,-1.063349 -0.81139,-1.790347 -0.5223,-0.726999 -1.15584,-0.656517 -1.64924,-1.005417 -0.49341,-0.3489 -0.52374,-1.305277 -0.78493,-1.305277 -0.2612,0 -1.36123,-0.295814 -1.82562,-0.732014 -0.46441,-0.4362 -0.1485,-1.537708 -0.26459,-2.090208 -0.11611,-0.552501 -0.84086,-2.037221 -1.30527,-2.822222 -0.4644,-0.785001 0.11492,-2.470681 -0.0882,-2.848681 -0.2031,-0.377999 -1.07392,-0.0543 -1.59632,0.352778 -0.52238,0.4071 -0.813827,0.227423 -1.684508,0.05292 -0.8707,-0.174501 -0.843418,0.202435 -1.278819,0.696736 -0.435401,0.494309 -0.987171,0.178932 -1.393472,0.14993 -0.406301,-0.029 -0.808141,-1.078856 -1.243542,-1.340555 -0.435401,-0.261699 -1.538455,0.171868 -2.293055,0.02646 -0.7546,-0.1454 -1.014129,-0.899171 -1.464028,-1.393472 -0.449898,-0.494301 -1.176369,-1.760749 -1.437569,-1.746249 -0.261199,0.01451 -2.153039,0.179273 -2.240138,0.440972 0.0871,-0.261699 -1.47852,-0.898932 -1.91382,-1.102431 -0.435299,-0.203499 -1.097726,-0.382188 -1.649236,0.141111 -0.551498,0.523299 -2.879247,1.773532 -4.330346,2.645833 -1.451097,0.872301 -1.56249,0.525047 -1.446389,-0.114652 0.1161,-0.639699 1.33825,-0.871068 2.06375,-1.481667 0.7255,-0.610591 0.400862,-1.104903 0.255764,-1.860902 -0.145099,-0.756 -1.099888,-2.446353 -1.128889,-3.289653 -0.029,-0.8433 -0.347935,-1.222366 -1.102431,-1.164166 -0.754501,0.0582 -0.78313,0.522647 -1.10243,0.202847 -0.319301,-0.319801 -0.645502,-0.606894 -1.225903,-0.723195 -0.580401,-0.1163 -0.777559,-0.144235 -0.661458,-0.696736 0.158186,-1.218765 0.295684,-1.81825 0.723194,-3.033888 C 52.976076,16.998462 30.821259,14.95115 8.8811796,10.001248 8.2156096,9.850568 7.8479102,9.7487924 7.2848603,9.6131926 c -0.4727501,0.7183504 -0.046786,1.3175264 0.097014,1.4904864 0.1451,0.174499 0.4059472,0.761697 0.2028472,1.314097 -0.2031001,0.552399 -1.1584945,1.362399 -0.7231944,2.002013 0.4353001,0.639603 0.9556303,0.609532 1.4199304,0.696736 0.4642899,0.0872 1.1306888,3.841984 0.8113888,4.074583 -0.3193,0.232599 -0.9848832,0.233085 -1.2170832,0.582083 -0.2322,0.348999 -0.8158665,1.392479 -1.1641665,1.305278 -0.3483,-0.0872 -0.6948,0.644404 -0.3175,1.225903 0.3773,0.581499 -0.0307,2.354623 0.3175,3.139722 0.3482001,0.7851 0.2627833,0.927446 0.5820832,0.520347 0.3193,-0.4071 0.5535721,-0.818078 1.0759721,-0.352778 0.5224001,0.4653 -0.9898136,1.773532 -1.3670137,2.645833 -0.3772001,0.872301 0.5484887,2.705269 1.1288888,3.025069 0.5804001,0.3198 0.1808581,-0.189484 0.9789582,-0.0441 0.7981001,0.145401 0.606614,1.199444 -0.2204861,1.199444 -0.8271001,0 -0.8847304,0.385843 -1.1024304,1.243542 -0.2177,0.857698 -0.4352832,1.060876 -0.8995833,1.031875 -0.4643,-0.029 -0.1769945,1.021991 0.2293056,1.719791 0.4063,0.6978 2.902096,3.549294 3.395486,3.898194 0.493409,0.3489 0.639577,-0.41122 0.987777,-0.643819 0.3482,-0.232599 0.120089,1.399579 -0.141111,2.21368 -0.2612,0.814101 0.840625,1.482149 1.508125,2.06375 0.6675,0.5816 1.453508,0.753287 1.772708,0.811389 0.3192,0.0581 -0.380078,0.552672 -0.670278,1.075972 -0.2902,0.523299 0.723194,1.993194 0.723194,1.993194 0,0 1.653984,0.326215 2.169583,0.414514 0.5156,0.0883 2.673053,0.60487 3.607153,0.802569 0.9341,0.1977 4.559063,0.831401 5.335763,0.9525 0.7767,0.121099 6.614583,0.996597 6.614583,0.996597 l 0.03528,0 c -0.215499,-0.0339 1.985848,0.289554 2.742847,0.388056 0.756999,0.0985 7.465373,0.840164 8.060972,0.890763 0.595599,0.0506 0.493889,0.0441 0.493889,0.0441 l 2.813402,0.238125 c 0.426099,0.0292 2.673344,0.203998 4.691944,0.3175 1.5889,0.0893 3.038587,0.120091 3.351388,0.132291 0.7105,0.0278 5.672839,0.221485 6.050139,0.220486 0.3773,-0.0011 2.266597,-0.0088 2.266597,-0.0088 l 5.274027,-0.0882 2.548819,-0.08819 5.69736,-0.264583 c 0,0 -0.0076,-1.220196 -0.0088,-1.314097 -0.0011,-0.0939 0.282222,0 0.282222,0 l 0.493889,0.141111 0.458611,1.825624 0.273403,0.238125 1.11125,0.0088 2.240138,0.0088 0.05292,0.185209 c 0,0 0.0076,0.04067 0.176389,0.07937 0.1688,0.0387 0.332599,0.630777 0.635,0.987777 0.302401,0.357 0.826245,0.504526 1.199444,0.555625 0.373199,0.0511 1.214072,-0.04222 2.345972,-0.09701 1.1319,-0.0548 2.40832,-0.06452 2.866319,0.03528 0.457999,0.0994 0.925074,0.445937 1.984375,0.09701 1.059301,-0.3489 2.12887,-1.582403 2.390069,-2.178403 0.261199,-0.595999 0.480729,-1.413995 0.829028,-1.675694 0.348299,-0.261699 1.103155,-0.08819 2.293055,-0.08819 1.1899,0 2.697784,1.251198 3.307291,1.949097 0.60949,0.697899 0.807887,0.496773 1.446387,0.758472 0.63849,0.261699 1.24947,0.927108 1.48167,2.090208 0.23221,1.1631 0.70219,2.523628 1.17299,2.734027 0.4708,0.2104 0.3815,0.206398 0.91722,0.679098 0.53568,0.472699 1.97895,-0.65024 2.24014,-0.970139 0.2612,-0.319899 0.52166,-0.02721 1.30527,0.176389 0.78361,0.2036 1.35987,-0.08309 1.94028,-0.432153 0.5804,-0.348999 1.33234,0.575253 1.82563,0.749653 0.4933,0.174399 0.69732,-0.399999 1.19062,-0.9525 0.49329,-0.552501 1.4256,1.30775 1.8609,2.06375 0.4353,0.755999 0.49559,2.350501 0.17639,2.495902 -0.3192,0.145401 -1.68246,-0.896631 -2.20486,-1.41993 -0.5224,-0.5233 -0.87203,-0.349662 -0.78493,0.202847 0.0871,0.552501 0.40341,1.832796 0.22931,1.949097 -0.1741,0.116301 -0.26459,1.798997 -0.26459,2.584097 0,0.7851 -2.26116,1.268936 -2.52236,1.966736 -0.2612,0.6978 -0.44097,4.612569 -0.44097,4.612569 0,0 3.37543,-2.891302 5.00062,-4.083403 1.6252,-1.192101 4.00317,-0.742964 4.61257,-1.208263 0.6094,-0.4653 0.68589,-1.015896 0.17639,-1.040695 -0.5095,-0.02481 -2.26151,-0.243651 -2.31951,-0.47625 -0.058,-0.23259 0.28561,-0.698965 0.5468,-1.164166 0.2612,-0.465201 3.37011,-1.896181 4.35681,-1.896181 0.98669,0 3.70417,-0.864305 3.70417,-0.864305 0,0 0.2861,-0.968118 0.38805,-1.120069 0.71963,-1.072549 0.30451,-0.595484 0.45861,-0.899584 0.1541,-0.3041 0.19237,-0.653479 0.39688,-0.94368 0.20451,-0.290201 0.77611,-0.79375 0.77611,-0.79375 -0.23385,-0.205489 -0.64293,0.816079 -0.33514,-0.167569 l 1.49049,-0.308681 c 0,0 1.62566,-1.556001 1.84326,-1.905 0.2176,-0.34899 1.00745,-1.537298 1.38465,-2.584097 0.3772,-1.046798 1.31925,-2.225584 2.01965,-3.095624 0.9015,-1.11983 1.37175,-1.992373 1.51695,-2.980972 0.1452,-0.988599 0.65368,-3.866472 0.94368,-5.838472 0.29,-1.971999 1.7263,-3.644659 2.4518,-4.10986 0.7255,-0.465201 0.54826,-1.076557 0.43216,-1.658056 -0.11611,-0.58149 -0.14291,-1.686743 0.17639,-2.151944 0.3193,-0.465201 3.54264,-2.117482 5.37104,-2.989791 1.8284,-0.872301 6.43758,-3.697478 6.84389,-4.162778 0.4063,-0.465298 0.67027,-1.040282 0.67027,-1.534583 0,-0.494301 1.10014,-2.038115 0.92604,-2.910416 -0.1741,-0.872301 -0.2293,-1.283349 -0.2293,-1.42875 0,-0.145401 1.36531,-0.320384 1.68451,-0.582083 0.3192,-0.261699 0.66146,-1.622778 0.66146,-1.622778 1.11731,0.581601 0.78493,-1.139698 0.78493,-1.314097 0,-0.174399 0.61338,-0.779976 0.75847,-1.128889 0.1451,-0.3489 0.37079,-0.872289 -0.73201,-1.860902 -1.1028,-0.988608 -1.79591,-2.23774 -2.23132,-2.557639 -0.4354,-0.319894 -1.38804,0.117314 -1.64924,0.0882 -0.26119,-0.0291 -2.1186,-0.820209 -2.4959,-0.820209 -0.3773,0 -1.01942,1.33915 -0.96132,1.74625 0.0581,0.4071 -0.69648,1.860903 -0.89958,1.860903 -0.20311,0 -0.46743,1.741551 -0.46743,2.38125 0,0.639711 -0.75049,0.843782 -1.0407,0.582083 -0.2902,-0.261699 -0.43798,-2.029945 0.0265,-2.69875 0.4644,-0.668819 1.45013,-1.772296 1.50813,-2.266597 0.058,-0.494301 0.70121,-1.545875 1.04951,-2.301875 0.3483,-0.7559997 -0.69832,0.0271 -1.27882,-0.1763885 -0.5805,-0.2034999 -1.04577,-0.6046638 -0.98778,-0.2557638 0.058,0.3489 -0.69673,0.8433723 -0.69673,1.0759723 0,0.23259 -0.95708,-0.467431 -1.30528,-0.467431 -0.3482,0 -0.26458,0.96132 -0.26458,0.96132 0,0 -1.90896,-0.668873 -2.66347,-1.075972 -0.75451,-0.4071006 -2.15195,0 -2.15195,0 l -1.19062,-0.784931 c 0,0 0.006,-1.3368498 -0.45861,-2.0637497 -0.4644,-0.7269 -1.59716,-1.0504982 -1.88737,-1.1377082 -0.2902,-0.0872 -0.60973,-0.7816361 -0.69673,-1.014236 -0.087,-0.2325999 -1.68475,-0.006 -2.38125,-0.3263194 -0.6965,-0.3198001 -2.29221,-2.3505025 -2.45181,-2.4959025 -0.1596,-0.1454 -1.39371,-0.058899 -1.64041,-0.3351389 -0.24669,-0.2762 -1.36702,-1.41111092 -1.36702,-1.41111092 0,0 -1.13287,0.0264583 -0.98777,0.0264583 -0.14509,0 0.0342,0.32326661 -0.0529,0.84666662 -0.0871,0.5234 -0.0882,1.4552081 -0.0882,1.4552081 0,0 0.5491,0.495125 0.7232,0.8731249 0.1741,0.378 -0.0904,0.843272 -0.26458,1.0759721 -0.17419,0.2327001 0.47129,1.0758127 1.2259,1.8609026 0.7546,0.7851001 0.28318,1.3648832 -0.32632,0.8995832 -0.60951,-0.4653 -1.35784,-1.7478971 -1.56104,-1.631597 -0.2032,0.1163001 -0.17868,1.658297 -0.35278,1.949097 -0.1741,0.2908001 -0.61048,0.035278 -0.98778,0.035278 -0.3773,0 -0.0805,1.0732608 -0.16757,1.8873609 -0.0871,0.8140999 -0.38007,1.6246649 -0.67028,1.7991659 -0.2902,0.174501 -0.26204,-1.072166 -0.29104,-1.7991659 -0.029,-0.7270002 -0.46199,-1.4800192 -0.72319,-1.5963193 -0.26119,-0.1163001 -0.64128,0.6633472 -0.67028,0.8378471 -0.029,0.1745102 -0.57665,0.085291 -0.83785,-0.1763888 -0.2612,-0.2617002 -1.74783,-1.1893193 -2.32833,-1.5963193 -0.5805,-0.407 -0.16757,-1.949097 -0.16757,-1.949097 0,0 -0.0335,-0.810736 -0.35278,-1.014236 -0.3193,-0.2035 -0.23328,-0.7260877 -0.0882,-0.9877777 0.1451,-0.2617001 0.44267,-1.2523609 0.12347,-1.2523609 -0.3192,0 -1.42477,0.8995832 -1.56986,0.8995832 -0.1451,0 -0.84352,-0.3730583 -1.27882,-0.3439583 -0.4353,0.0291 -1.07536,0.372064 -1.48167,0.2557639 -0.4063,-0.1163 -0.52263,-1.1317721 -0.69673,-1.3934721 -0.1741,-0.2617 -0.84014,0.143 -1.01424,0.3175 -0.1741,0.1745 -0.69384,0.7000305 -0.92604,0.4674305 -0.23221,-0.2326 -0.90551,-1.71714987 -1.13771,-1.74624985 -0.15964,-0.02 -0.66127,-0.37042607 -1.12007,-0.37923607 z M 157.91213,15.52222 c -0.39536,0.135819 -1.64924,2.187222 -1.64924,2.187222 -0.30471,1.9045 -0.17241,2.92162 0.1323,3.139722 0.3047,0.218101 0.44979,0.78493 0.44979,0.78493 0,0 -0.52035,0.80899 -0.52035,1.128889 0,0.319899 0.86431,1.394708 0.86431,1.772708 0,0.378 0.69902,1.511009 0.87312,1.772708 0.1741,0.26169 -0.49363,0.996597 -0.69674,0.996597 -0.2031,0 -1.02619,1.641808 -1.04069,1.772708 -0.0145,0.130901 0.6327,0.767292 0.9084,0.767292 0.2757,0 0.54137,-0.625915 0.80257,-0.873125 0.2612,-0.247201 1.19945,0.360448 1.19945,0.520347 0,0.15989 -0.95723,0.238622 -1.10243,0.282222 -0.1452,0.0436 -0.66146,2.531181 -0.66146,2.531181 0,0 -0.16201,0.969244 0.72319,0.881944 0.88521,-0.0873 1.30855,-1.395191 2.46945,-2.354792 1.16091,-0.9596 2.01699,-1.063204 2.94569,-1.499305 0.9287,-0.436109 1.09845,-1.164166 1.24354,-1.164166 0.14509,0 0.61082,0.177196 0.78493,-0.02646 0.1741,-0.2036 0.635,-1.481666 0.635,-1.481666 0,0 0.90586,-0.05521 0.93486,0.264583 0.029,0.3198 -0.41271,1.42216 -0.73201,1.887361 -0.3193,0.465209 0.0361,1.130777 0.32632,1.305278 0.2902,0.1745 1.21735,-0.0853 1.01424,-1.684514 -0.20311,-1.599201 0.0563,-0.928172 0.3175,-1.393472 0.26119,-0.4653 0.36159,-2.504722 0.36159,-2.504722 0,0 0.63778,0.298213 0.85549,0.414514 0.2177,0.116301 0.0441,1.535322 0.0441,1.869722 0,0.334399 0.36667,0.873125 0.75847,0.873125 0.3918,0 0.54899,-0.534693 0.72319,-0.767292 0.17419,-0.232591 0.27256,0.271258 0.43215,0.343958 0.1596,0.0727 0.43749,0.149434 0.62619,0.105834 0.18869,-0.0436 0.14067,-1.204815 0.097,-1.684514 -0.0436,-0.479699 0.1806,-1.266938 -0.009,-1.790347 -0.18869,-0.523401 -0.81307,-0.598983 -0.94368,-0.264583 -0.1306,0.334398 -0.217,1.314097 -0.40569,1.314097 -0.1887,0 -0.42479,-0.785015 -0.30869,-1.322917 0.11611,-0.537901 -0.0378,-1.532439 -0.45861,-1.605139 -0.4208,-0.0727 -0.40654,0.570707 -0.24694,1.137709 0.1596,0.567001 -0.42418,0.737198 -0.71438,0.679097 -0.2902,-0.0581 0,-0.640766 0,-1.164167 0,-0.5234 0.32148,-1.859497 0.17639,-2.266597 -0.1451,-0.407099 -0.96387,-0.287816 -0.93486,0.264584 0.029,0.552399 -0.42926,1.129783 -0.66146,1.217083 -0.2322,0.0873 0.26062,1.164166 -0.49389,1.164166 -0.7545,0 -0.61361,-2.062996 -0.55562,-2.266597 0.058,-0.203599 0.32125,-0.873466 -0.52035,-1.164166 -0.84161,-0.290689 -1.39576,1.132766 -1.56986,1.481666 -0.1741,0.3489 -1.03864,1.545051 -1.56104,1.42875 -0.52241,-0.116309 -0.38372,-0.643819 -0.73201,-0.643819 -0.34829,0 -0.69021,0.703668 -0.86431,0.529166 -0.17412,-0.1745 -0.12288,-1.689043 -0.52917,-1.834444 -0.40631,-0.145401 -0.51999,0.755831 -0.72319,0.784931 -0.2032,0.0291 -0.60396,0.466025 -0.25576,0.873125 0.3482,0.407099 -0.0927,1.046872 -0.44098,1.075972 -0.34829,0.0291 -0.43578,-1.603734 -0.49388,-2.010833 -0.0581,-0.4071 -0.11261,-1.562278 -0.635,-1.940278 -0.52241,-0.378 -0.43251,-1.280055 -0.22931,-1.658055 0.2032,-0.378 0.34319,-2.041923 0.0529,-2.187222 -0.0181,-0.009 -0.0354,-0.009 -0.0617,0 z M 1.3758332,21.369511 c -0.43529998,0 -0.6725666,0.95662 -0.84666659,1.596319 -0.17409999,0.639699 0.35277773,1.42875 0.35277773,1.42875 0.40629996,0.31989 -0.17578327,1.101778 -0.58208326,1.305277 -0.4063,0.2035 0.0254999,1.196876 0.63499992,2.301875 0.6094999,1.10499 0.7253832,1.104829 0.8995833,0.784931 0.1742,-0.319899 -0.1965695,-1.336508 -0.1675695,-1.772709 0.029,-0.436198 0.6967361,-0.763001 0.6967361,-0.908402 0,-0.14541 -0.5516361,-0.371653 -0.6967361,-0.749653 -0.1451,-0.378 0.079375,-0.46743 0.079375,-0.46743 0,0 0.9632554,-0.984826 1.3405554,-1.508125 0.3773,-0.5233 0.4321528,-0.758472 0.4321528,-0.758472 L 2.3018748,22.736524 2.0108331,22.127983 c 0,0 -0.1996999,-0.758472 -0.6349999,-0.758472 z M 150.30095,30.585829 c -0.13614,0.002 -0.28657,0.02819 -0.44979,0.08819 -0.8706,0.319801 -2.43685,0.403807 -3.10445,0.229306 -0.66761,-0.174501 -2.44298,1.543403 -2.44298,1.543403 -0.20311,0.494309 0.62727,-0.0107 1.16417,-0.185209 0.53689,-0.174509 0.89788,0.156351 1.21708,0.47625 0.31919,0.319899 2.78778,-0.227999 3.07798,-0.635 0.29021,-0.407009 1.51077,-0.325012 1.48167,-0.732013 -0.0237,-0.33068 -0.35376,-0.793652 -0.94368,-0.784931 z m -5.47687,3.898194 -2.11667,1.014236 c 0,0 -1.97519,1.7189 -3.07799,3.4925 -1.1028,1.7736 -2.31781,3.922595 -2.63701,4.533194 -0.31919,0.610599 -1.16417,5.820832 -1.16417,5.820832 0,0 -2.19942,1.946456 -2.46062,1.975556 -0.2612,0.0291 -1.04951,1.164166 -1.04951,1.164166 0,0 -1.34117,2.815889 -1.38466,3.033889 -0.0435,0.217999 -2.18722,2.345972 -2.18722,2.345972 l 3.57188,-0.732014 0.0617,0.06174 3.43958,-1.569861 0,-1.543403 1.51695,-0.01764 -0.34396,-0.934861 0.19403,-0.0441 0.21166,0.01764 -0.0176,-0.352778 0.15875,-0.670277 0.33513,-0.740834 0.14112,-0.599722 -0.26459,-0.30868 -0.0441,-0.881945 0.11465,-0.194027 0.0794,-0.405695 -0.0882,-0.881944 0.5909,-2.107847 0.23813,-0.573264 0.2734,-0.05292 0,0.0441 0.0882,0.0088 0.009,0.16757 0.19403,0.3175 0.41451,0.05292 0.10584,-0.114653 0.0176,-0.15875 0.50271,-0.423333 0.23812,-0.282222 0.20285,0.01764 1.13771,0.440972 1.49048,4.312708 0.84667,-0.0441 0.12347,0.30868 0.0617,0.679097 0.40569,0.299861 0.13229,0.0088 0,-0.105833 -0.0265,-0.132292 0.35278,-0.0441 0.29104,0.291041 0.48507,-0.09701 0.29104,-1.10243 1.50813,-0.934861 0.20285,-0.546806 1.62277,-1.367013 0.29105,-1.984375 1.25236,-0.811389 -0.21167,-0.723194 -1.30528,0.546805 -1.39347,-1.128888 0.0882,-1.190625 -1.41993,0 0,-1.225903 -0.5468,-0.723194 -0.9084,0.749652 -1.76389,-0.202847 c 0.002,-0.02709 0.0944,-1.278421 0.35278,-1.393472 0.26119,-0.116301 1.01397,-0.202847 1.21708,-0.202847 0.20311,0 0.46343,-0.807099 0.60854,-0.9525 0.14509,-0.145409 0.89535,-1.051743 1.24354,-1.516944 0.3482,-0.465201 -0.46309,-0.578036 -0.81139,-1.014236 -0.3483,-0.436192 -1.48166,-0.670278 -1.48166,-0.670278 z M 4.9300689,35.96569 c -0.3429999,-0.0011 -0.6486761,0.105672 -0.855486,0.291041 -0.5515,0.494301 1.3052776,1.596319 1.3052776,1.596319 0,0 -0.1499305,1.249068 -0.1499305,1.481667 0,0.232591 1.0759721,0.555625 1.0759721,0.555625 0,0 0.4925415,0.827365 0.6085416,1.349375 0.1160001,0.522001 2.6987497,4.347985 2.6987497,4.347985 l 1.0230546,2.760486 c 0,0 0.41235,0.160616 0.79375,0.370417 0.3814,0.209809 0.388056,0.590902 0.388056,0.590902 l 0.493889,-0.299861 c 0,0 0.114652,-2.579155 0.114652,-2.928055 0,-0.3489 -0.432388,-1.190464 -1.128888,-1.975555 -0.6965,-0.7851 -0.663395,-1.978028 -1.040694,-2.734028 C 9.879713,40.616009 7.4977382,38.058367 6.6851381,36.953467 6.1772581,36.262898 5.5017289,35.967699 4.9300689,35.96569 z M 157.01255,36.11562 c -0.24289,0.033 -0.45119,0.191451 -0.43216,0.458611 0.029,0.4071 0.35304,1.713202 0.14993,2.178403 -0.2031,0.465201 -0.55018,0.442208 -0.81138,0.820208 -0.2612,0.378 1.15982,1.804692 1.50812,2.037291 0.3483,0.232599 0.72258,-0.263177 1.12889,-0.670277 0.4063,-0.4071 0.92979,-1.022644 0.98778,-1.516945 0.058,-0.4943 -0.11466,-1.164166 -0.11466,-1.164166 -0.1161,-0.450701 -0.37644,-0.227076 -0.60854,0.238125 -0.23209,0.465209 -0.60854,0.493889 -0.60854,0.493889 0,0 -0.26458,-1.452908 -0.26458,-1.772708 0,-0.319801 -0.20743,-0.904113 -0.55563,-1.049514 -0.087,-0.0363 -0.17863,-0.05252 -0.2734,-0.05292 -0.0355,-1.3e-4 -0.0711,-0.005 -0.10583,0 z m -3.45722,3.351389 c -0.29814,0.0622 -0.96132,1.128888 -0.96132,1.128888 0,0 -0.95734,0.961718 -1.10243,1.005417 -0.14509,0.0437 -1.17299,-0.07056 -1.17299,-0.07056 l -0.64382,-0.917222 -0.56444,0.423334 c -0.2612,0.377999 0.50862,1.223261 0.74083,1.25236 0.2322,0.0291 0.87312,0.767292 0.87312,0.767292 0,0 0.5625,0.05558 0.635,0.02646 0.0725,-0.0291 0.30375,-0.319986 0.60855,-0.537986 0.3048,-0.217999 2.06375,-0.141111 2.06375,-0.141111 0,0 0.62618,-0.438827 0.62618,-0.511527 0,-0.0727 -0.85863,-0.234332 -0.87313,-0.423334 -0.0145,-0.189001 0.4057,-1.305277 0.4057,-1.305277 0,0 -0.32089,-0.609437 -0.58209,-0.696736 -0.0163,-0.005 -0.033,-0.004 -0.0529,0 z m 3.46604,2.460624 c -0.14511,0 -1.04866,0.785924 -1.65806,0.873125 -0.60939,0.0872 -2.00201,1.014236 -2.00201,1.014236 0,0 -0.69963,-0.06891 -0.91722,-0.185208 -0.2176,-0.11631 -0.61737,0 -0.61737,0 l -0.30868,0.273403 c -0.3047,0.276199 -0.82902,1.499305 -0.82902,1.499305 0,0 0.19428,0.722698 0.44097,0.679097 0.2467,-0.0436 1.15535,-0.899583 1.15535,-0.899583 0.91419,-0.4071 0.75678,0.68313 0.62618,0.78493 -0.13061,0.101801 -1.03188,0.335139 -1.03188,0.335139 0,0 -0.0615,0.291781 0.18521,0.626181 0.24669,0.334399 -0.90551,0.491247 -1.13771,0.520347 -0.2322,0.0291 -0.67619,1.283592 -0.9084,1.719791 -0.2322,0.4362 -1.67874,2.658034 -1.69333,2.963333 -0.0146,0.3053 0.34734,0.906755 0.60854,1.023056 0.26119,0.116309 0.96216,0.246944 1.25236,0.246944 0.2902,0 0.68137,0.390697 0.85548,0.361597 0.17409,-0.0291 0.55105,-0.494882 0.65264,-0.582083 0.10161,-0.0872 0.94173,-2.42559 1.01424,-2.716388 0.0725,-0.290799 0.0708,-1.56293 0.3175,-1.737431 0.2467,-0.174501 1.01857,-0.271754 1.12007,-0.388055 0.10151,-0.11631 0.24694,-1.093611 0.24694,-1.093611 0,0 0.0998,-0.03059 0.3175,-0.132292 0.2177,-0.10169 0.99648,-1.215421 1.44639,-1.869722 0.4499,-0.654301 1.0216,-1.33915 1.5875,-1.74625 0.5659,-0.4071 1.12637,-1.279714 0.70556,-1.367013 -0.42079,-0.0873 -1.28365,-0.202848 -1.42875,-0.202848 z m -45.46423,0.537986 c 0.0174,0.02351 0.0232,0.02501 0.0441,0.05292 0.004,0.005 0.005,0.02028 0.009,0.02646 -0.018,-0.0313 -0.0358,-0.05228 -0.0529,-0.07938 z"
   id="Canada"
   inkscape:label=""
   inkscape:connector-curvature="0" /><path
   id="VA"
   class="fil0 str0"
   d="m 132.32386,86.768794 0.1609,-1.2568 -1.9445,-0.1308 -1.8138,-1.2212 c 0,0 1.6687,0.3053 1.8138,0.4216 0.1451,0.1163 1.1174,-0.0146 1.1174,-0.0146 l -0.3048,-1.2793 -3.7728,-1.9627 0.2902,-1.2212 -1.90139,-1.5048 -0.0218,-0.1962 -1.245,0.0487 0.4041,0.3355 -0.0405,0.9145 -0.8996,-0.3351 -0.7409,-0.2406 0.0261,0.8197 -0.3718,0.8512 -0.3782,0.4244 -0.1926,0.4716 -0.41739,0.1009 -0.2377,1.1635 -0.5956,0.1266 -0.4342,-0.3605 -0.1659,0.0974 -0.0561,0.8699 -0.8866,2.3431 0.1523,0.1761 -0.0158,0.2762 -0.417,0.6645 -0.2925,-0.0712 -0.4555,0.3657 -0.4097,-0.0696 -0.2649,0.6939 -0.6302,0.2914 -0.38,-0.1662 -0.7601,0.4111 -0.6041,-0.1099 -0.6137,-0.6643 -0.0714,-0.0248 -0.5876,0.7192 -0.995,1.2187 -0.2073,0.3152 0.007,0.3326 -1.5964,0.9802 3.0836,-0.5795 1.1139,-0.062 0.3981,-0.342 0.955,-0.0253 6.0843,-1.1371 9.1153,-2.4577 z"
   inkscape:connector-curvature="0"
   style="fill:#c9c9c9;fill-opacity:0.99918739;stroke:#7c7c7c;stroke-width:0.28222224;stroke-miterlimit:4;stroke-opacity:1;stroke-dasharray:none"
   inkscape:label="#VA" /><path
   style="fill:#c9c9c9;fill-opacity:0.99918739;stroke:#7c7c7c;stroke-width:0.28222221;stroke-miterlimit:4;stroke-opacity:1;stroke-dasharray:none"
   d="m 131.73608,69.841374 c 0,0 -0.002,0.0477 -0.0265,0.28222 -0.0247,0.23451 -0.26665,0.4741 -0.43215,0.635 -0.1655,0.1609 -0.19927,0.39611 -0.21167,0.50271 -0.0124,0.1066 0.0253,0.31018 0.0617,0.44097 0.0364,0.1308 0.11051,0.24396 0.2293,0.43216 0.11879,0.1882 1.24355,1.02305 1.24355,1.02305 l -2.09021,2.73403 3.71298,1.82563 1.20827,-4.19806 c 0,0 -1.10837,-1.03361 -0.89077,-1.45521 0.2176,-0.4216 0.80257,-1.03187 0.80257,-1.03187 l -0.30868,-0.92604 -3.29847,-0.26459 z m 19.05882,1.03188 c -0.69472,0 -1.26118,0.55764 -1.26118,1.25236 l 0,3.30729 c 0,0.69471 0.56646,1.25236 1.26118,1.25236 l 5.07118,0 c 0.69471,0 1.25236,-0.55765 1.25236,-1.25236 l 0,-3.30729 c 0,-0.69472 -0.55765,-1.25236 -1.25236,-1.25236 l -5.07118,0 z"
   id="NJ"
   inkscape:connector-curvature="0" /><path
   style="fill:#c9c9c9;fill-opacity:0.99918739;stroke:#7c7c7c;stroke-width:0.28222221;stroke-miterlimit:4;stroke-opacity:1;stroke-dasharray:none"
   d="m 131.63907,76.905754 0.32632,1.84326 0.57326,1.92264 0.94368,0.0882 -0.097,-1.71979 z m 19.15583,1.7124 c -0.69472,0 -1.26118,0.55764 -1.26118,1.25236 l 0,3.30729 c 0,0.69471 0.56646,1.25236 1.26118,1.25236 l 5.07118,0 c 0.69471,0 1.25236,-0.55765 1.25236,-1.25236 l 0,-3.30729 c 0,-0.69472 -0.55765,-1.25236 -1.25236,-1.25236 z"
   id="DE"
   inkscape:connector-curvature="0"
   sodipodi:nodetypes="ccccccsssssssss" /><path
   style="fill:#c9c9c9;fill-opacity:0.99918739;stroke:#7c7c7c;stroke-width:0.28222221;stroke-miterlimit:4;stroke-opacity:1;stroke-dasharray:none"
   d="m 160.79615,55.236374 c -0.69472,0 -1.25236,0.56647 -1.25236,1.26118 l 0,3.29848 c 0,0.69471 0.55764,1.25236 1.25236,1.25236 l 5.07118,0 c 0.69471,0 1.25236,-0.55765 1.25236,-1.25236 l 0,-3.29848 c 0,-0.69471 -0.55765,-1.26118 -1.25236,-1.26118 l -5.07118,0 z m -21.98688,10.32757 -3.57187,0.59972 0.37924,2.39889 2.06374,-0.46743 c 0,0 1.36448,-0.70136 1.39348,-0.84666 0.029,-0.1453 -0.26459,-1.68452 -0.26459,-1.68452 z"
   id="CT"
   inkscape:connector-curvature="0" /><path
   style="fill:#c9c9c9;fill-opacity:0.99918739;stroke:#7c7c7c;stroke-width:0.28222221;stroke-miterlimit:4;stroke-opacity:1;stroke-dasharray:none"
   d="m 160.79615,47.519364 c -0.69472,0 -1.25236,0.55765 -1.25236,1.25236 l 0,3.29847 c 0,0.69472 0.55764,1.26118 1.25236,1.26118 l 5.07118,0 c 0.69471,0 1.25236,-0.56646 1.25236,-1.26118 l 0,-3.29847 c 0,-0.69471 -0.55765,-1.25236 -1.25236,-1.25236 l -5.07118,0 z m -20.9991,17.52424 -0.9525,0.70555 0.22931,1.49931 1.08479,-0.82903 0.49389,-0.83785 -0.85549,-0.53798 z"
   id="RI"
   inkscape:connector-curvature="0" /><path
   style="fill:#c9c9c9;fill-opacity:0.99918739;stroke:#7c7c7c;stroke-width:0.28222221;stroke-miterlimit:4;stroke-opacity:1;stroke-dasharray:none"
   d="m 139.84115,62.829914 -2.68111,0.87313 -2.2666,0.18521 0.34396,2.27541 3.57187,-0.59972 0.0353,0.18521 0.9525,-0.70555 0.85549,0.53798 1.49048,0.009 0.57327,-0.60855 0.0705,-1.55222 -1.19062,1.05834 z m 20.955,8.00806 c -0.69472,0 -1.25236,0.55765 -1.25236,1.25236 l 0,3.30729 c 0,0.69472 0.55764,1.25236 1.25236,1.25236 l 5.07118,0 c 0.69471,0 1.25236,-0.55764 1.25236,-1.25236 l 0,-3.30729 c 0,-0.69471 -0.55765,-1.25236 -1.25236,-1.25236 z"
   id="MA"
   inkscape:connector-curvature="0"
   sodipodi:nodetypes="cccccccccccccsssssssss" /><path
   style="fill:#c9c9c9;fill-opacity:0.99918739;stroke:#7c7c7c;stroke-width:0.28222221;stroke-miterlimit:4;stroke-opacity:1;stroke-dasharray:none"
   d="m 135.81066,55.589154 -3.43958,1.57868 0.54681,0.57327 0.40569,3.63361 c 0,0 0.2585,0.25963 0.6791,0.69673 0.4206,0.4371 0.63513,0.77099 0.78493,1.08479 0.1498,0.3138 0.097,0.6791 0.097,0.6791 l 1.55222,-0.0705 -0.35277,-2.01084 -0.27341,-6.16479 z m 14.98424,7.24958 c -0.69472,0 -1.26118,0.55765 -1.26118,1.25237 l 0,3.29847 c 0,0.69471 0.56646,1.25236 1.26118,1.25236 l 5.07118,0 c 0.69471,0 1.25236,-0.55765 1.25236,-1.25236 l 0,-3.29847 c 0,-0.69472 -0.55765,-1.25237 -1.25236,-1.25237 l -5.07118,0 z"
   id="VT"
   inkscape:connector-curvature="0" /><path
   style="fill:#c9c9c9;fill-opacity:0.99918739;stroke:#7c7c7c;stroke-width:0.28222221;stroke-miterlimit:4;stroke-opacity:1;stroke-dasharray:none"
   d="m 137.32761,54.036934 -1.51695,0.0176 0,1.53458 0.27341,6.16479 0.35277,2.01084 0.7232,-0.0617 2.68111,-0.87313 0.15875,-3.12208 -0.35278,-0.14993 -0.0882,-0.44097 -0.55563,-0.14111 -0.10583,-0.50271 -1.56986,-4.43618 z m 23.46854,8.78417 c -0.69472,0 -1.25236,0.55764 -1.25236,1.25236 l 0,3.29847 c 0,0.69471 0.55764,1.26118 1.25236,1.26118 l 5.07118,0 c 0.69471,0 1.25236,-0.56647 1.25236,-1.26118 l 0,-3.29847 c 0,-0.69472 -0.55765,-1.25236 -1.25236,-1.25236 l -5.07118,0 z"
   id="NH"
   inkscape:connector-curvature="0" />
<path
   style="fill:#c9c9c9;fill-opacity:0.99918739;fill-rule:evenodd;stroke:#7c7c7c;stroke-width:0.28222224;stroke-miterlimit:4;stroke-opacity:1;stroke-dasharray:none"
   inkscape:connector-curvature="0"
   id="PA"
   class="fil0 str0"
   d="m 117.47554,79.175564 -1.1743,-4.5099 -0.622,-3.0379 1.9492,-1.8071 0.4354,0.6979 0.7835,0.1163 10.7382,-2.6169 c 0,0 0.1741,0.2617 0.6094,0.3489 0.4353,0.0872 0.6095,0.5816 0.6095,0.7851 0,0.2035 -0.1161,0.6106 -0.1161,0.6106 l 1.1028,0.0872 c 0,0 0.0871,0.4362 -0.4063,0.8723 -0.4934,0.4361 -0.1742,1.1632 0.029,1.4248 0.2032,0.2616 1.248,1.0176 1.248,1.0176 l -2.0896,2.7332 -10.3988,2.7346 -2.6979,0.5433 z"
   inkscape:label="#PA" /><path
   style="fill:#c9c9c9;fill-opacity:0.99918739;fill-rule:evenodd;stroke:#7c7c7c;stroke-width:0.28222221;stroke-miterlimit:4;stroke-opacity:1;stroke-dasharray:none"
   d="m 130.62483,75.988524 -0.48507,0.11466 -6.75569,1.70215 -3.27202,0.87312 0.44098,1.71098 0.66145,-0.92604 0.42334,-0.15875 0.51152,-0.47625 0.74966,-0.097 0.83784,-0.50271 1.07598,0.3616 1.1377,-0.13229 0.0176,0.15875 1.905,1.5434 -0.29104,1.21708 2.83104,0.24695 -0.71437,-3.07799 0.60854,-1.47284 c 0.008,0.24229 0.01,0.5046 -0.0176,0.635 -0.058,0.2763 0.0264,1.49048 0.0264,1.49048 l 1.65805,2.69875 1.64924,1.04952 -0.0706,-2.19605 -0.94368,-0.0882 -0.58208,-1.92264 -0.3175,-1.84326 z m 30.17132,2.68993 c -0.69472,0 -1.25236,0.55765 -1.25236,1.25237 l 0,3.30729 c 0,0.69471 0.55764,1.25236 1.25236,1.25236 l 5.07118,0 c 0.69471,0 1.25236,-0.55765 1.25236,-1.25236 l 0,-3.30729 c 0,-0.69472 -0.55765,-1.25237 -1.25236,-1.25237 z"
   id="MD"
   inkscape:connector-curvature="0"
   sodipodi:nodetypes="cccccccccccccccccccccccccccsssssssss" /><path
   id="NY"
   d="m 135.55193,69.909934 2.57,-1.336 c 0,0 -1.1327,1.2212 -1.5245,1.5701 -0.3918,0.3489 -1.2468,0.9596 -1.2468,0.9596 l -0.305,-0.9305 -3.3082,-0.2616 -1.1028,-0.0872 c 0,0 0.1258,-0.5144 0.1161,-0.6106 -0.01,-0.0962 -0.0657,-0.3981 -0.2132,-0.5375 -0.1475,-0.1394 -0.3006,-0.2112 -0.4552,-0.2608 -0.1546,-0.0496 -0.2907,-0.1034 -0.3687,-0.1642 -0.078,-0.0608 -0.1818,-0.1715 -0.1818,-0.1715 l -3.3007,0.8043 -4.5624,1.1119 -2.8751,0.7007 -0.7835,-0.1163 -0.4354,-0.6979 1.4509,-2.4715 0.2322,-1.3957 c 0,0 1.219,-0.9595 1.4221,-0.9595 0.2031,0 0.6384,0.2035 1.1318,0.2035 0.4934,0 0.8127,0.2618 1.1319,0.3199 0.3192,0.0581 2.2927,-1.7446 2.2927,-1.7446 l 0.9577,-0.5524 -1.20773,-1.132 c 0,0 0.80162,-1.44071 0.99336,-1.86766 0.29399,-0.65464 0.60463,-1.24554 0.60463,-1.24554 0,0 0.5224,-0.6998 1.1609,-0.7289 0.6385,-0.0291 1.51289,-0.3199 1.51289,-0.3199 l 3.05985,-0.8122 0.6094,0.6397 0.4063,3.6346 c 0,0 0.7546,0.7269 1.1609,1.2503 0.4063,0.5234 0.3906,0.945 0.3906,1.134 0,0.189 0.741,4.7976 0.741,4.7976 l -0.3567,0.9469 z"
   class="fil0 str0"
   inkscape:connector-curvature="0"
   style="fill:#c9c9c9;fill-opacity:0.99918739;fill-rule:evenodd;stroke:#7c7c7c;stroke-width:0.28222224;stroke-miterlimit:4;stroke-opacity:1;stroke-dasharray:none"
   sodipodi:nodetypes="ccsccccssssccccccccssscccscsccccssccc" /><path
   style="fill:#c9c9c9;fill-opacity:1;stroke:#7c7c7c;stroke-width:0.28222218;stroke-miterlimit:4;stroke-opacity:1"
   d="m 150.79163,86.238394 5.07165,0 c 0.69472,0 1.254,0.55929 1.254,1.254 l 0,3.30307 c 0,0.69472 -0.55928,1.254 -1.254,1.254 l -5.07165,0 c -0.69472,0 -1.254,-0.55928 -1.254,-1.254 l 0,-3.30307 c 0,-0.69471 0.55928,-1.254 1.254,-1.254 z"
   id="DC"
   inkscape:label="#rect3501-1-7-4-0-9-4-8-8"
   inkscape:connector-curvature="0" /><path
   style="fill:#c3c3c3;fill-opacity:1;stroke:#797979;stroke-width:0.29582369;stroke-linecap:butt;stroke-linejoin:round;stroke-miterlimit:4;stroke-opacity:1;stroke-dashoffset:0"
   d="m 150.53573,94.244331 15.54562,0 c 0.57607,0 1.03983,0.463766 1.03983,1.039833 l 0,3.775916 c 0,0.576067 -0.46376,1.03983 -1.03983,1.03983 l -15.54562,0 c -0.57607,0 -1.03983,-0.463763 -1.03983,-1.03983 l 0,-3.775916 c 0,-0.576067 0.46376,-1.039833 1.03983,-1.039833 z"
   id="PR"
   inkscape:connector-curvature="0" /><path
   style="fill:#c3c3c3;fill-opacity:1;stroke:#797979;stroke-width:0.29582369;stroke-linecap:butt;stroke-linejoin:round;stroke-miterlimit:4;stroke-opacity:1;stroke-dashoffset:0"
   d="m 150.52723,101.88557 15.54562,0 c 0.57607,0 1.03983,0.46376 1.03983,1.03983 l 0,3.77592 c 0,0.57606 -0.46376,1.03983 -1.03983,1.03983 l -15.54562,0 c -0.57607,0 -1.03983,-0.46377 -1.03983,-1.03983 l 0,-3.77592 c 0,-0.57607 0.46376,-1.03983 1.03983,-1.03983 z"
   id="USVI"
   inkscape:connector-curvature="0" /><path
   style="fill:#c3c3c3;fill-opacity:1;stroke:#797979;stroke-width:0.29582369;stroke-linecap:butt;stroke-linejoin:round;stroke-miterlimit:4;stroke-opacity:1;stroke-dashoffset:0"
   d="m 150.52723,109.58649 15.54562,0 c 0.57607,0 1.03983,0.46376 1.03983,1.03983 l 0,3.77592 c 0,0.57606 -0.46376,1.03983 -1.03983,1.03983 l -15.54562,0 c -0.57607,0 -1.03983,-0.46377 -1.03983,-1.03983 l 0,-3.77592 c 0,-0.57607 0.46376,-1.03983 1.03983,-1.03983 z"
   id="GUAM"
   inkscape:connector-curvature="0" /><path
   style="font-size:3.10444403px;font-style:normal;font-weight:normal;line-height:125%;letter-spacing:0px;word-spacing:0px;fill:#000000;fill-opacity:1;stroke:none;font-family:Sans"
   d="m 162.03081,49.194855 0,2.222499 0.29986,0 0,-0.987777 0.34396,0 c 0.0758,0 0.12545,0.0018 0.15875,0.0088 0.0455,0.0111 0.0883,0.03344 0.13229,0.06174 0.044,0.0283 0.0943,0.0792 0.14993,0.149931 0.0556,0.0707 0.12577,0.17528 0.21167,0.30868 l 0.29986,0.458611 0.37042,0 -0.38806,-0.608541 c -0.0768,-0.11824 -0.16104,-0.212243 -0.24694,-0.291042 -0.0404,-0.0364 -0.0986,-0.0773 -0.17639,-0.114653 0.21323,-0.0293 0.37417,-0.0947 0.47625,-0.202847 0.10209,-0.10813 0.14993,-0.239225 0.14993,-0.396875 0,-0.12227 -0.0354,-0.234078 -0.097,-0.335139 -0.0617,-0.101049 -0.14386,-0.171766 -0.24694,-0.211666 -0.10307,-0.0399 -0.25173,-0.06174 -0.44979,-0.06174 l -0.98778,0 z m 2.29306,0 0,2.222499 0.29104,0 0,-2.222499 -0.29104,0 z m -1.9932,0.246944 0.70556,0 c 0.16472,0 0.2853,0.02931 0.36159,0.09701 0.0762,0.0677 0.11466,0.159492 0.11466,0.264583 0,0.0717 -0.0223,0.132927 -0.0617,0.194028 -0.0394,0.0612 -0.10059,0.113312 -0.17639,0.141111 -0.0758,0.0278 -0.1831,0.03528 -0.3175,0.03528 l -0.62618,0 0,-0.732014 z m 0.14993,7.584721 c -0.19605,0 -0.37477,0.0429 -0.53798,0.132292 -0.1632,0.0894 -0.29084,0.224576 -0.37924,0.396875 -0.0884,0.1723 -0.13229,0.377122 -0.13229,0.608542 0,0.212219 0.0452,0.405962 0.12347,0.590902 0.0783,0.184929 0.18507,0.325834 0.33514,0.423334 0.15007,0.0975 0.35139,0.14993 0.5909,0.14993 0.23142,0 0.4219,-0.0672 0.58209,-0.194028 0.16016,-0.126819 0.27353,-0.314104 0.33513,-0.555624 l -0.29104,-0.07056 c -0.0404,0.186961 -0.12393,0.328334 -0.23812,0.423333 -0.11421,0.095 -0.24981,0.141111 -0.41452,0.141111 -0.13541,0 -0.26302,-0.0361 -0.37923,-0.105833 -0.11622,-0.0697 -0.20067,-0.17653 -0.25577,-0.3175 -0.0551,-0.140981 -0.0794,-0.30491 -0.0794,-0.493889 0,-0.14653 0.0239,-0.285394 0.0705,-0.423333 0.0465,-0.137939 0.12343,-0.244419 0.23813,-0.326319 0.11469,-0.0819 0.26136,-0.123473 0.43215,-0.123473 0.14855,0 0.2636,0.03199 0.3616,0.105834 0.098,0.0738 0.1778,0.191098 0.2293,0.352777 l 0.29105,-0.06174 c -0.0596,-0.205139 -0.16592,-0.371878 -0.3175,-0.485069 -0.15159,-0.113171 -0.34212,-0.16757 -0.56445,-0.16757 z m 1.11125,0.03528 0,0.264584 0.73202,0 0,1.957916 0.29986,0 0,-1.957916 0.73201,0 0,-0.264584 -1.76389,0 z m -2.07257,7.584722 0,2.222499 0.28222,0 0,-1.746249 1.16417,1.746249 0.29986,0 0,-2.222499 -0.28222,0 0,1.746249 -1.16417,-1.746249 -0.29986,0 z m 2.24896,0 0,2.222499 0.29986,0 0,-1.049513 1.15535,0 0,1.049513 0.29104,0 0,-2.222499 -0.29104,0 0,0.908402 -1.15535,0 0,-0.908402 -0.29986,0 z m -12.44423,0.0088 0.85548,2.2225 0.30868,0 0.86431,-2.2225 -0.29986,0 -0.59973,1.613958 c -0.0455,0.121271 -0.0804,0.240327 -0.11465,0.361597 -0.0313,-0.113171 -0.077,-0.232246 -0.12347,-0.361597 l -0.57326,-1.613958 -0.3175,0 z m 2.1343,0 0,0.264583 0.73202,0 0,1.957917 0.29104,0 0,-1.957917 0.73201,0 0,-0.264583 -1.75507,0 z m -1.88736,7.972777 0,2.2225 0.28222,0 0,-1.74625 1.16417,1.74625 0.30868,0 0,-2.2225 -0.28222,0 0,1.74625 -1.17299,-1.74625 -0.29986,0 z m 3.02507,0 0,1.534583 c 0,0.12733 -0.0151,0.215302 -0.0353,0.273403 -0.0202,0.0581 -0.0522,0.10721 -0.10583,0.141111 -0.0536,0.0339 -0.12023,0.05292 -0.19403,0.05292 -0.10005,0 -0.17271,-0.03431 -0.2293,-0.09701 -0.0566,-0.0626 -0.09,-0.174188 -0.097,-0.343959 l -0.26458,0.03528 c -0.004,0.22131 0.0463,0.381728 0.14993,0.493889 0.10358,0.112169 0.24593,0.167569 0.44097,0.167569 0.13137,0 0.24646,-0.02577 0.34396,-0.07937 0.0975,-0.0536 0.17548,-0.127245 0.22049,-0.229305 0.045,-0.102071 0.0617,-0.246202 0.0617,-0.432153 l 0,-1.516944 -0.29104,0 z m 6.65868,0 0,2.2225 0.28222,0 0,-1.887361 0.64382,1.887361 0.26458,0 0.65264,-1.860903 0,1.860903 0.28223,0 0,-2.2225 -0.39688,0 -0.52917,1.543403 c -0.0535,0.156638 -0.0982,0.280698 -0.12347,0.361597 -0.0222,-0.0728 -0.0573,-0.17979 -0.10583,-0.32632 l -0.52917,-1.57868 -0.44097,0 z m 3.21028,0 -0.85549,2.2225 0.3175,0 0.23813,-0.670278 0.93486,0 0.25576,0.670278 0.33514,0 -0.9084,-2.2225 -0.3175,0 z m 0.14993,0.238125 c 0.0344,0.120249 0.0881,0.271661 0.15875,0.458611 l 0.2293,0.617361 -0.74965,0 0.24694,-0.652639 c 0.0515,-0.14047 0.0863,-0.280842 0.11466,-0.423333 z m -13.04396,7.487707 0,2.2225 0.80257,0 c 0.1344,0 0.25802,-0.01 0.3616,-0.03528 0.10359,-0.0253 0.19128,-0.0657 0.26458,-0.114652 0.0733,-0.049 0.14124,-0.117447 0.20285,-0.202848 0.0617,-0.0854 0.11052,-0.187138 0.14993,-0.3175 0.0394,-0.130361 0.0617,-0.281022 0.0617,-0.449791 0,-0.198069 -0.0301,-0.375057 -0.0882,-0.529167 -0.0581,-0.15411 -0.14735,-0.280235 -0.26458,-0.379236 -0.0899,-0.0768 -0.19899,-0.12945 -0.32632,-0.15875 -0.091,-0.0212 -0.22408,-0.03528 -0.39688,-0.03528 l -0.76729,0 z m 2.24896,0 0,2.2225 1.65805,0 0,-0.264583 -1.35819,0 0,-0.749653 1.2259,0 0,-0.264583 -1.2259,0 0,-0.679097 1.3141,0 0,-0.264584 -1.61396,0 z m 7.40833,0.0088 0,2.2225 0.28222,0 0,-1.887361 0.64382,1.887361 0.26459,0 0.64382,-1.852084 0,1.852084 0.28222,0 0,-2.2225 -0.39688,0 -0.52916,1.552222 c -0.0535,0.156639 -0.0894,0.271977 -0.11466,0.352778 -0.0222,-0.0728 -0.0573,-0.179779 -0.10583,-0.32632 l -0.52917,-1.57868 -0.44097,0 z m 2.59292,0 0,2.2225 0.80257,0 c 0.1344,0 0.258,-0.01 0.36159,-0.03528 0.10359,-0.0252 0.1913,-0.0568 0.26459,-0.105834 0.0733,-0.049 0.14124,-0.117446 0.20284,-0.202847 0.0617,-0.0854 0.11053,-0.195949 0.14994,-0.326319 0.0394,-0.130361 0.0617,-0.281023 0.0617,-0.449792 0,-0.19806 -0.0301,-0.375048 -0.0882,-0.529166 -0.0581,-0.154099 -0.14737,-0.280236 -0.26459,-0.379236 -0.0899,-0.0768 -0.19899,-0.12945 -0.32632,-0.15875 -0.0909,-0.0212 -0.22407,-0.03528 -0.39687,-0.03528 l -0.76729,0 z m -11.95035,0.255764 0.46743,0 c 0.17484,0 0.30044,0.0138 0.37924,0.0441 0.10914,0.0425 0.1971,0.130965 0.2734,0.255764 0.0763,0.12481 0.11465,0.296745 0.11465,0.529166 0,0.167762 -0.014,0.314424 -0.0529,0.432153 -0.0389,0.117729 -0.0979,0.212522 -0.16757,0.282222 -0.0495,0.0495 -0.11063,0.08739 -0.19403,0.114653 -0.0834,0.0273 -0.19743,0.03528 -0.34396,0.03528 l -0.47625,0 0,-1.693333 z m 12.25021,0.0088 0.46743,0 c 0.17482,0 0.30044,0.0138 0.37924,0.0441 0.10914,0.0424 0.1971,0.130954 0.2734,0.255764 0.0762,0.124799 0.11465,0.305557 0.11465,0.537986 0,0.16775 -0.014,0.305605 -0.0529,0.423334 -0.0389,0.117729 -0.0979,0.212521 -0.16757,0.282222 -0.0495,0.0495 -0.11062,0.08739 -0.19402,0.114652 -0.0834,0.0273 -0.20625,0.0441 -0.35278,0.0441 l -0.46743,0 0,-1.702153 z m -9.33979,7.320138 c -0.19606,0 -0.37479,0.0517 -0.53799,0.141111 -0.16321,0.0894 -0.29083,0.215756 -0.37923,0.388056 -0.0884,0.172311 -0.1323,0.377122 -0.1323,0.608541 0,0.21222 0.0363,0.405974 0.11466,0.590903 0.0783,0.184929 0.19389,0.325834 0.34396,0.423333 0.15006,0.0975 0.3514,0.149931 0.5909,0.149931 0.23141,0 0.4219,-0.06721 0.58208,-0.194028 0.16017,-0.12683 0.27354,-0.305274 0.33514,-0.546805 l -0.29104,-0.07937 c -0.0404,0.186949 -0.12394,0.328334 -0.23813,0.423333 -0.11421,0.095 -0.24979,0.141111 -0.41451,0.141111 -0.13542,0 -0.26303,-0.03611 -0.37924,-0.105833 -0.11622,-0.0697 -0.20066,-0.167711 -0.25576,-0.308681 -0.0551,-0.14097 -0.0794,-0.304918 -0.0794,-0.493889 0,-0.146529 0.0152,-0.294222 0.0617,-0.432152 0.0465,-0.137939 0.13224,-0.244419 0.24695,-0.32632 0.1147,-0.0819 0.25254,-0.123472 0.42333,-0.123472 0.14855,0 0.27242,0.03199 0.37042,0.105833 0.098,0.0738 0.1778,0.191087 0.2293,0.352778 l 0.29104,-0.06174 c -0.0596,-0.205139 -0.16592,-0.363059 -0.3175,-0.47625 -0.15159,-0.113171 -0.34212,-0.176389 -0.56444,-0.176389 z m -3.21028,0.0441 0,2.2225 0.80257,0 c 0.1344,0 0.25802,-0.0188 0.3616,-0.0441 0.10359,-0.0252 0.19128,-0.0568 0.26458,-0.105833 0.0733,-0.049 0.14124,-0.117447 0.20285,-0.202848 0.0617,-0.0854 0.11052,-0.195958 0.14993,-0.326319 0.0394,-0.130361 0.0617,-0.281031 0.0617,-0.449792 0,-0.198069 -0.0301,-0.375056 -0.0882,-0.529166 -0.0581,-0.15411 -0.14735,-0.280236 -0.26458,-0.379236 -0.0899,-0.0768 -0.19899,-0.12945 -0.32632,-0.15875 -0.091,-0.0212 -0.22408,-0.02646 -0.39688,-0.02646 l -0.76729,0 z m 0.29986,0.255764 0.46743,0 c 0.17484,0 0.30044,0.0138 0.37924,0.0441 0.10914,0.0425 0.1971,0.130966 0.2734,0.255764 0.0763,0.12481 0.11465,0.305557 0.11465,0.537986 0,0.167762 -0.014,0.305605 -0.0529,0.423334 -0.0389,0.117729 -0.0979,0.212521 -0.16757,0.282222 -0.0495,0.0495 -0.11063,0.08739 -0.19403,0.114653 -0.0834,0.0273 -0.19743,0.0441 -0.34396,0.0441 l -0.47625,0 0,-1.702153 z m 4.41854,7.814027 0,2.2225 0.29104,0 0,-0.908403 0.57327,0 c 0.31428,0 0.53239,-0.06321 0.65264,-0.194028 0.12029,-0.130869 0.17639,-0.287271 0.17639,-0.476249 0,-0.110152 -0.0167,-0.216682 -0.0617,-0.308681 -0.045,-0.092 -0.10259,-0.160666 -0.17639,-0.211667 -0.0738,-0.051 -0.17309,-0.0876 -0.28222,-0.105833 -0.0778,-0.0142 -0.1876,-0.01764 -0.33514,-0.01764 l -0.83785,0 z m 2.08139,0 0,2.2225 0.29104,0 0,-0.987778 0.34396,0 c 0.0758,0 0.12545,0.0018 0.15875,0.0088 0.0454,0.0111 0.0971,0.03343 0.14111,0.06174 0.044,0.0283 0.0855,0.0792 0.14111,0.14993 0.0556,0.0707 0.13459,0.166461 0.22049,0.299861 l 0.29104,0.467431 0.37042,0 -0.38806,-0.608542 c -0.0768,-0.11824 -0.16104,-0.212242 -0.24694,-0.291041 -0.0404,-0.0364 -0.0986,-0.0772 -0.17639,-0.114653 0.21323,-0.0293 0.37418,-0.0947 0.47625,-0.202847 0.1021,-0.108131 0.14993,-0.239234 0.14993,-0.396875 0,-0.12227 -0.0266,-0.234078 -0.0882,-0.335139 -0.0616,-0.10105 -0.14388,-0.171766 -0.24695,-0.211667 -0.10308,-0.0399 -0.26054,-0.06174 -0.45861,-0.06174 l -0.97896,0 z m 0.29104,0.246945 0.70556,0 c 0.16472,0 0.2853,0.02931 0.3616,0.09701 0.0762,0.0677 0.11465,0.159493 0.11465,0.264584 0,0.0718 -0.0223,0.132926 -0.0617,0.194027 -0.0394,0.0612 -0.1006,0.104493 -0.17639,0.132292 -0.0758,0.0278 -0.17429,0.0441 -0.30868,0.0441 l -0.635,0 0,-0.732013 z m -2.08139,0.01764 0.57327,0 c 0.13339,0 0.2239,0.005 0.2734,0.01764 0.0768,0.0212 0.13821,0.0661 0.18521,0.132292 0.047,0.0662 0.0705,0.145124 0.0705,0.238125 0,0.12834 -0.0437,0.229162 -0.12347,0.299861 -0.0798,0.0707 -0.20689,0.105833 -0.39687,0.105833 l -0.58209,0 0,-0.79375 z m 1.3582,7.337781 c -0.14956,0 -0.28341,0.0289 -0.4057,0.0794 -0.12228,0.0505 -0.21852,0.12299 -0.28222,0.22049 -0.0637,0.0975 -0.0882,0.19651 -0.0882,0.30868 0,0.10207 0.0185,0.19982 0.0705,0.28222 0.0521,0.0824 0.13202,0.14725 0.23813,0.20285 0.0819,0.0435 0.22802,0.0921 0.43215,0.14111 0.20414,0.049 0.33728,0.0826 0.39688,0.10583 0.093,0.0354 0.15362,0.0803 0.19402,0.13229 0.0404,0.0521 0.0617,0.11551 0.0617,0.18521 0,0.0687 -0.0198,0.12711 -0.0617,0.18521 -0.0419,0.0581 -0.10812,0.10771 -0.19402,0.14111 -0.0859,0.0333 -0.17888,0.0529 -0.29105,0.0529 -0.12632,0 -0.24289,-0.0266 -0.34395,-0.0706 -0.10105,-0.0439 -0.17249,-0.0964 -0.22049,-0.16757 -0.048,-0.0712 -0.0839,-0.16224 -0.097,-0.2734 l -0.27341,0.0176 c 0.004,0.14856 0.0462,0.28797 0.12348,0.40569 0.0773,0.11773 0.18157,0.20599 0.3175,0.26459 0.13592,0.0586 0.3016,0.0882 0.5027,0.0882 0.15866,0 0.30533,-0.0301 0.43216,-0.0882 0.12682,-0.0581 0.22334,-0.14236 0.29104,-0.24695 0.0677,-0.10458 0.10582,-0.2169 0.10583,-0.33514 0,-0.11925 -0.0354,-0.226 -0.097,-0.3175 -0.0617,-0.0915 -0.15287,-0.16088 -0.28222,-0.22048 -0.0889,-0.0404 -0.2549,-0.087 -0.49389,-0.14111 -0.239,-0.0541 -0.3932,-0.10725 -0.4498,-0.15875 -0.0576,-0.0515 -0.0794,-0.12305 -0.0794,-0.20285 0,-0.092 0.0422,-0.16411 0.12347,-0.22931 0.0814,-0.0652 0.2102,-0.10582 0.38806,-0.10583 0.17078,1e-5 0.30064,0.0428 0.38805,0.11465 0.0875,0.0717 0.13473,0.17705 0.14993,0.3175 l 0.28223,-0.0265 c -0.005,-0.13037 -0.0381,-0.24088 -0.10584,-0.34396 -0.0677,-0.10307 -0.16522,-0.18513 -0.29104,-0.23813 -0.12581,-0.0531 -0.27625,-0.0794 -0.44097,-0.0794 z m -3.00743,0.0353 0,1.28763 c 0,0.23547 0.0316,0.41971 0.0882,0.55563 0.0566,0.13592 0.14983,0.23698 0.28223,0.30868 0.13237,0.0717 0.30335,0.11465 0.51152,0.11465 0.21425,0 0.38847,-0.0411 0.52035,-0.12347 0.13188,-0.0824 0.2229,-0.19495 0.2734,-0.32632 0.0505,-0.13137 0.0794,-0.30583 0.0794,-0.52917 l 0,-1.28763 -0.29986,0 0,1.28763 c 0,0.27892 -0.0403,0.46645 -0.13229,0.56445 -0.092,0.098 -0.25119,0.14993 -0.46744,0.14993 -0.12633,0 -0.23009,-0.0299 -0.3175,-0.0794 -0.0874,-0.0495 -0.14931,-0.12016 -0.1852,-0.21166 -0.0359,-0.0915 -0.0529,-0.23032 -0.0529,-0.42334 l 0,-1.28763 -0.29986,0 z m 4.09222,0 0.85549,2.22249 0.30868,0 0.8643,-2.22249 -0.29986,0 -0.59972,1.61395 c -0.0454,0.12127 -0.0803,0.24916 -0.11465,0.37042 -0.0313,-0.11318 -0.077,-0.24107 -0.12348,-0.37042 l -0.57326,-1.61395 -0.3175,0 z m 2.34597,0 0,2.22249 0.29986,0 0,-2.22249 -0.29986,0 z m -6.41173,7.66409 c -0.22131,0 -0.42114,0.0502 -0.59091,0.14111 -0.16977,0.0909 -0.29755,0.22707 -0.38805,0.41452 -0.0905,0.18746 -0.14111,0.39228 -0.14111,0.60854 0,0.21828 0.0501,0.41405 0.14111,0.5909 0.0909,0.17684 0.22733,0.31219 0.40569,0.4057 0.17835,0.0935 0.37263,0.14111 0.59091,0.14111 0.16169,0 0.32263,-0.0301 0.47625,-0.0882 0.1536,-0.0581 0.30528,-0.14938 0.44979,-0.26458 l 0,-0.82021 -0.94368,0 0,0.26458 0.65264,0 0,0.41452 c -0.0626,0.0556 -0.15213,0.10093 -0.27341,0.14993 -0.12127,0.049 -0.2519,0.0794 -0.37923,0.0794 -0.14653,0 -0.28416,-0.0323 -0.41452,-0.097 -0.13037,-0.0647 -0.23166,-0.16647 -0.29986,-0.29986 -0.0682,-0.1334 -0.097,-0.29582 -0.097,-0.49389 0,-0.16068 0.0228,-0.31235 0.0794,-0.44979 0.0333,-0.0798 0.081,-0.15379 0.14111,-0.22049 0.0601,-0.0666 0.14013,-0.11785 0.23813,-0.15875 0.098,-0.0409 0.21837,-0.0617 0.35278,-0.0617 0.11217,0 0.21668,0.014 0.30868,0.0529 0.092,0.0389 0.16217,0.0941 0.21166,0.15875 0.0495,0.0647 0.0901,0.15141 0.12348,0.26459 l 0.26458,-0.0706 c -0.0384,-0.14956 -0.0938,-0.2686 -0.16757,-0.3616 -0.0738,-0.093 -0.17883,-0.16848 -0.30868,-0.22048 -0.12986,-0.0521 -0.27147,-0.0794 -0.43215,-0.0794 z m 1.37583,0.0441 0,1.27882 c 0,0.23546 0.0316,0.4197 0.0882,0.55562 0.0566,0.13592 0.14984,0.2458 0.28223,0.3175 0.13238,0.0717 0.30334,0.10584 0.51152,0.10584 0.21423,0 0.38847,-0.0411 0.52035,-0.12348 0.13188,-0.0824 0.2229,-0.19496 0.2734,-0.32632 0.0505,-0.13138 0.0706,-0.30583 0.0706,-0.52916 l 0,-1.27882 -0.29104,0 0,1.27882 c 0,0.27892 -0.0491,0.46644 -0.14111,0.56444 -0.092,0.098 -0.24236,0.14993 -0.45861,0.14993 -0.12634,0 -0.23892,-0.0299 -0.32632,-0.0794 -0.0874,-0.0495 -0.14931,-0.12017 -0.18521,-0.21167 -0.0359,-0.0915 -0.0529,-0.23031 -0.0529,-0.42333 l 0,-1.27882 -0.29104,0 z m 2.84868,0 -0.85549,2.21368 0.3175,0 0.23813,-0.67028 0.93486,0 0.25576,0.67028 0.33514,0 -0.9084,-2.21368 -0.3175,0 z m 1.45521,0 0,2.21368 0.28222,0 0,-1.88736 0.64382,1.88736 0.26458,0 0.64382,-1.85208 0,1.85208 0.28222,0 0,-2.21368 -0.38805,0 -0.53799,1.5434 c -0.0536,0.15663 -0.0894,0.27198 -0.11465,0.35278 -0.0222,-0.0728 -0.0573,-0.17979 -0.10583,-0.32632 l -0.52917,-1.56986 -0.44097,0 z m -1.30528,0.2293 c 0.0344,0.12027 0.088,0.27167 0.15875,0.45862 l 0.22931,0.61736 -0.74966,0 0.24695,-0.65264 c 0.0515,-0.14046 0.0863,-0.28084 0.11465,-0.42334 z"
   id="labels"
   inkscape:connector-curvature="0" /></svg>